<svg width="281" height="61" viewBox="0 0 281 61" fill="none" xmlns="http://www.w3.org/2000/svg">
<path d="M100.437 1.344V5.18H95.2289V21H90.4409V5.18H85.2329V1.344H100.437ZM111.884 5.208C113.676 5.208 115.113 5.80533 116.196 7C117.278 8.176 117.82 9.8 117.82 11.872V21H113.06V12.516C113.06 11.4707 112.789 10.6587 112.248 10.08C111.706 9.50133 110.978 9.212 110.064 9.212C109.149 9.212 108.421 9.50133 107.88 10.08C107.338 10.6587 107.068 11.4707 107.068 12.516V21H102.28V0.28H107.068V7.476C107.553 6.78533 108.216 6.23467 109.056 5.824C109.896 5.41333 110.838 5.208 111.884 5.208ZM135.315 12.936C135.315 13.384 135.287 13.8507 135.231 14.336H124.395C124.47 15.3067 124.778 16.0533 125.319 16.576C125.879 17.08 126.56 17.332 127.363 17.332C128.558 17.332 129.388 16.828 129.855 15.82H134.951C134.69 16.8467 134.214 17.7707 133.523 18.592C132.851 19.4133 132.002 20.0573 130.975 20.524C129.948 20.9907 128.8 21.224 127.531 21.224C126 21.224 124.638 20.8973 123.443 20.244C122.248 19.5907 121.315 18.6573 120.643 17.444C119.971 16.2307 119.635 14.812 119.635 13.188C119.635 11.564 119.962 10.1453 120.615 8.932C121.287 7.71867 122.22 6.78533 123.415 6.132C124.61 5.47867 125.982 5.152 127.531 5.152C129.043 5.152 130.387 5.46933 131.563 6.104C132.739 6.73867 133.654 7.644 134.307 8.82C134.979 9.996 135.315 11.368 135.315 12.936ZM130.415 11.676C130.415 10.8547 130.135 10.2013 129.575 9.716C129.015 9.23067 128.315 8.988 127.475 8.988C126.672 8.988 125.991 9.22133 125.431 9.688C124.89 10.1547 124.554 10.8173 124.423 11.676H130.415ZM147.443 5.18V9.156H153.855V12.852H147.443V17.164H154.695V21H142.655V1.344H154.695V5.18H147.443ZM164.607 1.344C166.679 1.344 168.49 1.75467 170.039 2.576C171.588 3.39733 172.783 4.55467 173.623 6.048C174.482 7.52267 174.911 9.23067 174.911 11.172C174.911 13.0947 174.482 14.8027 173.623 16.296C172.783 17.7893 171.579 18.9467 170.011 19.768C168.462 20.5893 166.66 21 164.607 21H157.243V1.344H164.607ZM164.299 16.856C166.11 16.856 167.519 16.3613 168.527 15.372C169.535 14.3827 170.039 12.9827 170.039 11.172C170.039 9.36133 169.535 7.952 168.527 6.944C167.519 5.936 166.11 5.432 164.299 5.432H162.031V16.856H164.299ZM181.815 5.18V9.156H188.227V12.852H181.815V17.164H189.067V21H177.027V1.344H189.067V5.18H181.815ZM7.68227 33.344C9.75427 33.344 11.5649 33.7547 13.1143 34.576C14.6636 35.3973 15.8583 36.5547 16.6983 38.048C17.5569 39.5227 17.9863 41.2307 17.9863 43.172C17.9863 45.0947 17.5569 46.8027 16.6983 48.296C15.8583 49.7893 14.6543 50.9467 13.0863 51.768C11.5369 52.5893 9.73561 53 7.68227 53H0.318273V33.344H7.68227ZM7.37427 48.856C9.18494 48.856 10.5943 48.3613 11.6023 47.372C12.6103 46.3827 13.1143 44.9827 13.1143 43.172C13.1143 41.3613 12.6103 39.952 11.6023 38.944C10.5943 37.936 9.18494 37.432 7.37427 37.432H5.10627V48.856H7.37427ZM35.53 37.376V53H30.742V50.872C30.2567 51.5627 29.594 52.1227 28.754 52.552C27.9327 52.9627 27.018 53.168 26.01 53.168C24.8154 53.168 23.7607 52.9067 22.846 52.384C21.9314 51.8427 21.222 51.068 20.718 50.06C20.214 49.052 19.962 47.8667 19.962 46.504V37.376H24.722V45.86C24.722 46.9053 24.9927 47.7173 25.534 48.296C26.0754 48.8747 26.8034 49.164 27.718 49.164C28.6514 49.164 29.3887 48.8747 29.93 48.296C30.4714 47.7173 30.742 46.9053 30.742 45.86V37.376H35.53ZM37.4572 45.16C37.4572 43.5547 37.7559 42.1453 38.3532 40.932C38.9692 39.7187 39.7999 38.7853 40.8452 38.132C41.8905 37.4787 43.0572 37.152 44.3452 37.152C45.4465 37.152 46.4079 37.376 47.2292 37.824C48.0692 38.272 48.7132 38.86 49.1612 39.588V37.376H53.9492V53H49.1612V50.788C48.6945 51.516 48.0412 52.104 47.2012 52.552C46.3799 53 45.4185 53.224 44.3172 53.224C43.0479 53.224 41.8905 52.8973 40.8452 52.244C39.7999 51.572 38.9692 50.6293 38.3532 49.416C37.7559 48.184 37.4572 46.7653 37.4572 45.16ZM49.1612 45.188C49.1612 43.9933 48.8252 43.0507 48.1532 42.36C47.4999 41.6693 46.6972 41.324 45.7452 41.324C44.7932 41.324 43.9812 41.6693 43.3092 42.36C42.6559 43.032 42.3292 43.9653 42.3292 45.16C42.3292 46.3547 42.6559 47.3067 43.3092 48.016C43.9812 48.7067 44.7932 49.052 45.7452 49.052C46.6972 49.052 47.4999 48.7067 48.1532 48.016C48.8252 47.3253 49.1612 46.3827 49.1612 45.188ZM61.6411 32.28V53H56.8531V32.28H61.6411ZM84.0645 33.344V37.18H78.8565V53H74.0685V37.18H68.8605V33.344H84.0645ZM93.0195 53.224C91.4888 53.224 90.1075 52.8973 88.8755 52.244C87.6622 51.5907 86.7008 50.6573 85.9915 49.444C85.3008 48.2307 84.9555 46.812 84.9555 45.188C84.9555 43.5827 85.3102 42.1733 86.0195 40.96C86.7288 39.728 87.6995 38.7853 88.9315 38.132C90.1635 37.4787 91.5448 37.152 93.0755 37.152C94.6062 37.152 95.9875 37.4787 97.2195 38.132C98.4515 38.7853 99.4222 39.728 100.131 40.96C100.841 42.1733 101.195 43.5827 101.195 45.188C101.195 46.7933 100.831 48.212 100.103 49.444C99.3942 50.6573 98.4142 51.5907 97.1635 52.244C95.9315 52.8973 94.5502 53.224 93.0195 53.224ZM93.0195 49.08C93.9342 49.08 94.7088 48.744 95.3435 48.072C95.9968 47.4 96.3235 46.4387 96.3235 45.188C96.3235 43.9373 96.0062 42.976 95.3715 42.304C94.7555 41.632 93.9902 41.296 93.0755 41.296C92.1422 41.296 91.3675 41.632 90.7515 42.304C90.1355 42.9573 89.8275 43.9187 89.8275 45.188C89.8275 46.4387 90.1262 47.4 90.7235 48.072C91.3395 48.744 92.1048 49.08 93.0195 49.08ZM112.724 53L107.964 46.448V53H103.176V32.28H107.964V43.732L112.696 37.376H118.604L112.108 45.216L118.66 53H112.724ZM134.652 44.936C134.652 45.384 134.624 45.8507 134.568 46.336H123.732C123.807 47.3067 124.115 48.0533 124.656 48.576C125.216 49.08 125.898 49.332 126.7 49.332C127.895 49.332 128.726 48.828 129.192 47.82H134.288C134.027 48.8467 133.551 49.7707 132.86 50.592C132.188 51.4133 131.339 52.0573 130.312 52.524C129.286 52.9907 128.138 53.224 126.868 53.224C125.338 53.224 123.975 52.8973 122.78 52.244C121.586 51.5907 120.652 50.6573 119.98 49.444C119.308 48.2307 118.972 46.812 118.972 45.188C118.972 43.564 119.299 42.1453 119.952 40.932C120.624 39.7187 121.558 38.7853 122.752 38.132C123.947 37.4787 125.319 37.152 126.868 37.152C128.38 37.152 129.724 37.4693 130.9 38.104C132.076 38.7387 132.991 39.644 133.644 40.82C134.316 41.996 134.652 43.368 134.652 44.936ZM129.752 43.676C129.752 42.8547 129.472 42.2013 128.912 41.716C128.352 41.2307 127.652 40.988 126.812 40.988C126.01 40.988 125.328 41.2213 124.768 41.688C124.227 42.1547 123.891 42.8173 123.76 43.676H129.752ZM146.138 37.208C147.967 37.208 149.423 37.8053 150.506 39C151.607 40.176 152.158 41.8 152.158 43.872V53H147.398V44.516C147.398 43.4707 147.127 42.6587 146.586 42.08C146.045 41.5013 145.317 41.212 144.402 41.212C143.487 41.212 142.759 41.5013 142.218 42.08C141.677 42.6587 141.406 43.4707 141.406 44.516V53H136.618V37.376H141.406V39.448C141.891 38.7573 142.545 38.216 143.366 37.824C144.187 37.4133 145.111 37.208 146.138 37.208ZM173.095 33.344V37.18H165.087V41.324H171.079V45.048H165.087V53H160.299V33.344H173.095ZM179.839 32.28V53H175.051V32.28H179.839ZM198.709 37.376L188.909 60.42H183.757L187.341 52.468L180.985 37.376H186.333L189.945 47.148L193.529 37.376H198.709ZM222.309 37.376L218.081 53H212.789L210.325 42.864L207.777 53H202.513L198.257 37.376H203.045L205.257 48.548L207.889 37.376H212.957L215.617 48.492L217.801 37.376H222.309ZM233.179 37.208C234.971 37.208 236.408 37.8053 237.491 39C238.573 40.176 239.115 41.8 239.115 43.872V53H234.355V44.516C234.355 43.4707 234.084 42.6587 233.543 42.08C233.001 41.5013 232.273 41.212 231.359 41.212C230.444 41.212 229.716 41.5013 229.175 42.08C228.633 42.6587 228.363 43.4707 228.363 44.516V53H223.575V32.28H228.363V39.476C228.848 38.7853 229.511 38.2347 230.351 37.824C231.191 37.4133 232.133 37.208 233.179 37.208ZM256.61 44.936C256.61 45.384 256.582 45.8507 256.526 46.336H245.69C245.764 47.3067 246.072 48.0533 246.614 48.576C247.174 49.08 247.855 49.332 248.658 49.332C249.852 49.332 250.683 48.828 251.15 47.82H256.246C255.984 48.8467 255.508 49.7707 254.818 50.592C254.146 51.4133 253.296 52.0573 252.27 52.524C251.243 52.9907 250.095 53.224 248.826 53.224C247.295 53.224 245.932 52.8973 244.738 52.244C243.543 51.5907 242.61 50.6573 241.938 49.444C241.266 48.2307 240.93 46.812 240.93 45.188C240.93 43.564 241.256 42.1453 241.91 40.932C242.582 39.7187 243.515 38.7853 244.71 38.132C245.904 37.4787 247.276 37.152 248.826 37.152C250.338 37.152 251.682 37.4693 252.858 38.104C254.034 38.7387 254.948 39.644 255.602 40.82C256.274 41.996 256.61 43.368 256.61 44.936ZM251.71 43.676C251.71 42.8547 251.43 42.2013 250.87 41.716C250.31 41.2307 249.61 40.988 248.77 40.988C247.967 40.988 247.286 41.2213 246.726 41.688C246.184 42.1547 245.848 42.8173 245.718 43.676H251.71ZM273.304 44.936C273.304 45.384 273.276 45.8507 273.22 46.336H262.384C262.458 47.3067 262.766 48.0533 263.308 48.576C263.868 49.08 264.549 49.332 265.352 49.332C266.546 49.332 267.377 48.828 267.844 47.82H272.94C272.678 48.8467 272.202 49.7707 271.512 50.592C270.84 51.4133 269.99 52.0573 268.964 52.524C267.937 52.9907 266.789 53.224 265.52 53.224C263.989 53.224 262.626 52.8973 261.432 52.244C260.237 51.5907 259.304 50.6573 258.632 49.444C257.96 48.2307 257.624 46.812 257.624 45.188C257.624 43.564 257.95 42.1453 258.604 40.932C259.276 39.7187 260.209 38.7853 261.404 38.132C262.598 37.4787 263.97 37.152 265.52 37.152C267.032 37.152 268.376 37.4693 269.552 38.104C270.728 38.7387 271.642 39.644 272.296 40.82C272.968 41.996 273.304 43.368 273.304 44.936ZM268.404 43.676C268.404 42.8547 268.124 42.2013 267.564 41.716C267.004 41.2307 266.304 40.988 265.464 40.988C264.661 40.988 263.98 41.2213 263.42 41.688C262.878 42.1547 262.542 42.8173 262.412 43.676H268.404ZM280.058 32.28V53H275.27V32.28H280.058Z" fill="url(#paint0_linear_2381_2567)"/>
<defs>
<linearGradient id="paint0_linear_2381_2567" x1="137.5" y1="-5" x2="137.5" y2="59" gradientUnits="userSpaceOnUse">
<stop stop-color="#FFD100"/>
<stop offset="0.755208" stop-color="#FAA432"/>
<stop offset="0.901042" stop-color="#F99B3B"/>
<stop offset="0.9999" stop-color="#F89641"/>
<stop offset="1" stop-color="#F89542"/>
<stop offset="1" stop-color="#F89542"/>
</linearGradient>
</defs>
</svg>
