<svg width="672" height="49" viewBox="0 0 672 49" fill="none" xmlns="http://www.w3.org/2000/svg">
<path d="M26.5866 2.304V8.88H17.6586V36H9.45064V8.88H0.522636V2.304H26.5866ZM46.21 8.928C49.282 8.928 51.746 9.952 53.602 12C55.458 14.016 56.386 16.8 56.386 20.352V36H48.226V21.456C48.226 19.664 47.762 18.272 46.834 17.28C45.906 16.288 44.658 15.792 43.09 15.792C41.522 15.792 40.274 16.288 39.346 17.28C38.418 18.272 37.954 19.664 37.954 21.456V36H29.746V0.48H37.954V12.816C38.786 11.632 39.922 10.688 41.362 9.984C42.802 9.28 44.418 8.928 46.21 8.928ZM86.3778 22.176C86.3778 22.944 86.3298 23.744 86.2338 24.576H67.6578C67.7858 26.24 68.3138 27.52 69.2418 28.416C70.2018 29.28 71.3698 29.712 72.7458 29.712C74.7938 29.712 76.2178 28.848 77.0178 27.12H85.7538C85.3058 28.88 84.4898 30.464 83.3058 31.872C82.1538 33.28 80.6978 34.384 78.9378 35.184C77.1778 35.984 75.2098 36.384 73.0338 36.384C70.4098 36.384 68.0738 35.824 66.0258 34.704C63.9778 33.584 62.3778 31.984 61.2258 29.904C60.0738 27.824 59.4978 25.392 59.4978 22.608C59.4978 19.824 60.0578 17.392 61.1778 15.312C62.3298 13.232 63.9298 11.632 65.9778 10.512C68.0258 9.392 70.3778 8.832 73.0338 8.832C75.6258 8.832 77.9298 9.376 79.9458 10.464C81.9618 11.552 83.5298 13.104 84.6498 15.12C85.8018 17.136 86.3778 19.488 86.3778 22.176ZM77.9778 20.016C77.9778 18.608 77.4978 17.488 76.5378 16.656C75.5778 15.824 74.3778 15.408 72.9378 15.408C71.5618 15.408 70.3938 15.808 69.4338 16.608C68.5058 17.408 67.9298 18.544 67.7058 20.016H77.9778ZM107.168 8.88V15.696H118.16V22.032H107.168V29.424H119.6V36H98.9598V2.304H119.6V8.88H107.168ZM136.593 2.304C140.145 2.304 143.249 3.008 145.905 4.416C148.561 5.824 150.609 7.808 152.049 10.368C153.521 12.896 154.257 15.824 154.257 19.152C154.257 22.448 153.521 25.376 152.049 27.936C150.609 30.496 148.545 32.48 145.857 33.888C143.201 35.296 140.113 36 136.593 36H123.969V2.304H136.593ZM136.065 28.896C139.169 28.896 141.585 28.048 143.313 26.352C145.041 24.656 145.905 22.256 145.905 19.152C145.905 16.048 145.041 13.632 143.313 11.904C141.585 10.176 139.169 9.312 136.065 9.312H132.177V28.896H136.065ZM166.092 8.88V15.696H177.084V22.032H166.092V29.424H178.524V36H157.884V2.304H178.524V8.88H166.092ZM204.728 2.304C208.28 2.304 211.384 3.008 214.04 4.416C216.696 5.824 218.744 7.808 220.184 10.368C221.656 12.896 222.392 15.824 222.392 19.152C222.392 22.448 221.656 25.376 220.184 27.936C218.744 30.496 216.68 32.48 213.992 33.888C211.336 35.296 208.248 36 204.728 36H192.104V2.304H204.728ZM204.2 28.896C207.304 28.896 209.72 28.048 211.448 26.352C213.176 24.656 214.04 22.256 214.04 19.152C214.04 16.048 213.176 13.632 211.448 11.904C209.72 10.176 207.304 9.312 204.2 9.312H200.312V28.896H204.2ZM252.467 9.216V36H244.259V32.352C243.427 33.536 242.291 34.496 240.851 35.232C239.443 35.936 237.875 36.288 236.147 36.288C234.099 36.288 232.291 35.84 230.723 34.944C229.155 34.016 227.939 32.688 227.075 30.96C226.211 29.232 225.779 27.2 225.779 24.864V9.216H233.939V23.76C233.939 25.552 234.403 26.944 235.331 27.936C236.259 28.928 237.507 29.424 239.075 29.424C240.675 29.424 241.939 28.928 242.867 27.936C243.795 26.944 244.259 25.552 244.259 23.76V9.216H252.467ZM255.771 22.56C255.771 19.808 256.283 17.392 257.307 15.312C258.363 13.232 259.787 11.632 261.579 10.512C263.371 9.392 265.371 8.832 267.579 8.832C269.467 8.832 271.115 9.216 272.523 9.984C273.963 10.752 275.067 11.76 275.835 13.008V9.216H284.043V36H275.835V32.208C275.035 33.456 273.915 34.464 272.475 35.232C271.067 36 269.419 36.384 267.531 36.384C265.355 36.384 263.371 35.824 261.579 34.704C259.787 33.552 258.363 31.936 257.307 29.856C256.283 27.744 255.771 25.312 255.771 22.56ZM275.835 22.608C275.835 20.56 275.259 18.944 274.107 17.76C272.987 16.576 271.611 15.984 269.979 15.984C268.347 15.984 266.955 16.576 265.803 17.76C264.683 18.912 264.123 20.512 264.123 22.56C264.123 24.608 264.683 26.24 265.803 27.456C266.955 28.64 268.347 29.232 269.979 29.232C271.611 29.232 272.987 28.64 274.107 27.456C275.259 26.272 275.835 24.656 275.835 22.608ZM297.229 0.48V36H289.021V0.48H297.229ZM335.669 2.304V8.88H326.741V36H318.533V8.88H309.605V2.304H335.669ZM351.021 36.384C348.397 36.384 346.029 35.824 343.917 34.704C341.837 33.584 340.189 31.984 338.973 29.904C337.789 27.824 337.197 25.392 337.197 22.608C337.197 19.856 337.805 17.44 339.021 15.36C340.237 13.248 341.901 11.632 344.013 10.512C346.125 9.392 348.493 8.832 351.117 8.832C353.741 8.832 356.109 9.392 358.221 10.512C360.333 11.632 361.997 13.248 363.213 15.36C364.429 17.44 365.037 19.856 365.037 22.608C365.037 25.36 364.413 27.792 363.165 29.904C361.949 31.984 360.269 33.584 358.125 34.704C356.013 35.824 353.645 36.384 351.021 36.384ZM351.021 29.28C352.589 29.28 353.917 28.704 355.005 27.552C356.125 26.4 356.685 24.752 356.685 22.608C356.685 20.464 356.141 18.816 355.053 17.664C353.997 16.512 352.685 15.936 351.117 15.936C349.517 15.936 348.189 16.512 347.133 17.664C346.077 18.784 345.549 20.432 345.549 22.608C345.549 24.752 346.061 26.4 347.085 27.552C348.141 28.704 349.453 29.28 351.021 29.28ZM384.799 36L376.639 24.768V36H368.431V0.48H376.639V20.112L384.751 9.216H394.879L383.743 22.656L394.975 36H384.799ZM422.391 22.176C422.391 22.944 422.343 23.744 422.247 24.576H403.671C403.799 26.24 404.327 27.52 405.255 28.416C406.215 29.28 407.383 29.712 408.759 29.712C410.807 29.712 412.231 28.848 413.031 27.12H421.767C421.319 28.88 420.503 30.464 419.319 31.872C418.167 33.28 416.711 34.384 414.951 35.184C413.191 35.984 411.223 36.384 409.047 36.384C406.423 36.384 404.087 35.824 402.039 34.704C399.991 33.584 398.391 31.984 397.239 29.904C396.087 27.824 395.511 25.392 395.511 22.608C395.511 19.824 396.071 17.392 397.191 15.312C398.343 13.232 399.943 11.632 401.991 10.512C404.039 9.392 406.391 8.832 409.047 8.832C411.639 8.832 413.943 9.376 415.959 10.464C417.975 11.552 419.543 13.104 420.663 15.12C421.815 17.136 422.391 19.488 422.391 22.176ZM413.991 20.016C413.991 18.608 413.511 17.488 412.551 16.656C411.591 15.824 410.391 15.408 408.951 15.408C407.575 15.408 406.407 15.808 405.447 16.608C404.519 17.408 403.943 18.544 403.719 20.016H413.991ZM442.081 8.928C445.217 8.928 447.713 9.952 449.569 12C451.457 14.016 452.401 16.8 452.401 20.352V36H444.241V21.456C444.241 19.664 443.777 18.272 442.849 17.28C441.921 16.288 440.673 15.792 439.105 15.792C437.537 15.792 436.289 16.288 435.361 17.28C434.433 18.272 433.969 19.664 433.969 21.456V36H425.761V9.216H433.969V12.768C434.801 11.584 435.921 10.656 437.329 9.984C438.737 9.28 440.321 8.928 442.081 8.928ZM488.293 2.304V8.88H474.565V15.984H484.837V22.368H474.565V36H466.357V2.304H488.293ZM499.855 0.48V36H491.647V0.48H499.855ZM532.203 9.216L515.403 48.72H506.571L512.715 35.088L501.819 9.216H510.987L517.179 25.968L523.323 9.216H532.203ZM572.659 9.216L565.411 36H556.339L552.115 18.624L547.747 36H538.723L531.427 9.216H539.635L543.427 28.368L547.939 9.216H556.627L561.187 28.272L564.931 9.216H572.659ZM591.293 8.928C594.365 8.928 596.829 9.952 598.685 12C600.541 14.016 601.469 16.8 601.469 20.352V36H593.309V21.456C593.309 19.664 592.845 18.272 591.917 17.28C590.989 16.288 589.741 15.792 588.173 15.792C586.605 15.792 585.357 16.288 584.429 17.28C583.501 18.272 583.037 19.664 583.037 21.456V36H574.829V0.48H583.037V12.816C583.869 11.632 585.005 10.688 586.445 9.984C587.885 9.28 589.501 8.928 591.293 8.928ZM631.461 22.176C631.461 22.944 631.413 23.744 631.317 24.576H612.741C612.869 26.24 613.397 27.52 614.325 28.416C615.285 29.28 616.453 29.712 617.829 29.712C619.877 29.712 621.301 28.848 622.101 27.12H630.837C630.389 28.88 629.573 30.464 628.389 31.872C627.237 33.28 625.781 34.384 624.021 35.184C622.261 35.984 620.293 36.384 618.117 36.384C615.493 36.384 613.157 35.824 611.109 34.704C609.061 33.584 607.461 31.984 606.309 29.904C605.157 27.824 604.581 25.392 604.581 22.608C604.581 19.824 605.141 17.392 606.261 15.312C607.413 13.232 609.013 11.632 611.061 10.512C613.109 9.392 615.461 8.832 618.117 8.832C620.709 8.832 623.013 9.376 625.029 10.464C627.045 11.552 628.613 13.104 629.733 15.12C630.885 17.136 631.461 19.488 631.461 22.176ZM623.061 20.016C623.061 18.608 622.581 17.488 621.621 16.656C620.661 15.824 619.461 15.408 618.021 15.408C616.645 15.408 615.477 15.808 614.517 16.608C613.589 17.408 613.013 18.544 612.789 20.016H623.061ZM660.079 22.176C660.079 22.944 660.031 23.744 659.935 24.576H641.359C641.487 26.24 642.015 27.52 642.943 28.416C643.903 29.28 645.071 29.712 646.447 29.712C648.495 29.712 649.919 28.848 650.719 27.12H659.455C659.007 28.88 658.191 30.464 657.007 31.872C655.855 33.28 654.399 34.384 652.639 35.184C650.879 35.984 648.911 36.384 646.735 36.384C644.111 36.384 641.775 35.824 639.727 34.704C637.679 33.584 636.079 31.984 634.927 29.904C633.775 27.824 633.199 25.392 633.199 22.608C633.199 19.824 633.759 17.392 634.879 15.312C636.031 13.232 637.631 11.632 639.679 10.512C641.727 9.392 644.079 8.832 646.735 8.832C649.327 8.832 651.631 9.376 653.647 10.464C655.663 11.552 657.231 13.104 658.351 15.12C659.503 17.136 660.079 19.488 660.079 22.176ZM651.679 20.016C651.679 18.608 651.199 17.488 650.239 16.656C649.279 15.824 648.079 15.408 646.639 15.408C645.263 15.408 644.095 15.808 643.135 16.608C642.207 17.408 641.631 18.544 641.407 20.016H651.679ZM671.657 0.48V36H663.449V0.48H671.657Z" fill="url(#paint0_linear_2321_6130)"/>
<defs>
<linearGradient id="paint0_linear_2321_6130" x1="337" y1="-8" x2="337" y2="46" gradientUnits="userSpaceOnUse">
<stop stop-color="#FFD100"/>
<stop offset="1" stop-color="#F89542"/>
</linearGradient>
</defs>
</svg>
