<svg width="28" height="20" viewBox="0 0 28 20" fill="none" xmlns="http://www.w3.org/2000/svg">
<path fill-rule="evenodd" clip-rule="evenodd" d="M20.6644 20L19.0822 18.0714C22.2226 17.1905 23.4212 15.2381 23.4212 15.2381C22.4384 15.881 21.5034 16.3334 20.6644 16.6429C19.4658 17.1429 18.3151 17.4762 17.1884 17.6667C14.887 18.0953 12.7774 17.9762 10.9795 17.6429C9.61301 17.381 8.43835 17 7.45548 16.6191C6.90411 16.4048 6.30479 16.1429 5.70548 15.8096L5.60959 15.7551L5.58562 15.7449L5.48973 15.6905L5.39384 15.6191L4.7226 15.2143C4.7226 15.2143 5.87329 17.1191 8.91781 18.0238L7.31164 20C2.0137 19.8333 0 16.381 0 16.381C0 8.7144 3.45205 2.50017 3.45205 2.50017C6.90411 -0.0712311 10.1884 0.00019787 10.1884 0.00019787L10.4281 0.285908C6.11301 1.52399 4.12329 3.40492 4.12329 3.40492L5.53767 2.71446C8.10274 1.59542 10.1404 1.2859 10.9795 1.21447L11.387 1.16685C12.8493 0.976377 14.5034 0.928758 16.2295 1.11923C18.5068 1.38113 20.9521 2.04779 23.4452 3.40492C23.4452 3.40492 21.5514 1.61923 17.476 0.381145L17.8116 0.00019787C17.8116 0.00019787 21.0959 -0.0712311 24.5479 2.50017C24.5479 2.50017 28 8.7144 28 16.381C28 16.381 26.0377 19.7041 20.6644 20ZM18.2671 8.88106C16.9007 8.88106 15.8219 10.0715 15.8219 11.5239C15.8219 12.9763 16.9247 14.1667 18.2671 14.1667C19.6336 14.1667 20.7123 12.9763 20.7123 11.5239C20.7123 10.0715 19.6336 8.88106 18.2671 8.88106ZM9.51712 8.88106C8.15068 8.88106 7.07192 10.0715 7.07192 11.5239C7.07192 12.9763 8.17466 14.1667 9.51712 14.1667C10.8836 14.1667 11.9623 12.9763 11.9623 11.5239C11.9863 10.0715 10.8836 8.88106 9.51712 8.88106Z" fill="white"/>
</svg>
