<svg width="48" height="48" viewBox="0 0 48 48" fill="none" xmlns="http://www.w3.org/2000/svg">
<circle cx="24" cy="24" r="24" fill="#1A0D42"/>
<path fill-rule="evenodd" clip-rule="evenodd" d="M10.9122 12.9604C9.65737 12.9604 8.64062 13.9617 8.64062 15.1973V31.8468C8.64062 33.0824 9.65737 34.0836 10.9122 34.0836H28.1196C27.6725 33.3683 27.3331 32.5787 27.1241 31.7376H21.7392V29.3907H26.8922C26.929 28.5714 27.0866 27.7836 27.3477 27.0447H21.762V24.6915H24.1453V24.6986H27.6825V26.238C28.5049 24.5237 29.9085 23.1411 31.6379 22.3454H27.6898V15.3065H33.6458V17.6525H30.0722V19.9985H36.0291V21.6611C36.8667 21.7618 37.6653 21.9893 38.4051 22.324V15.1973C38.4051 13.9617 37.3883 12.9604 36.1336 12.9604H10.9122ZM19.3559 31.7376H11.0167V29.3907H16.9735V27.0447H13.4V24.6986H19.3559V31.7376ZM19.3632 15.3065H22.9005V15.2993H25.2838V17.6525H19.3632V15.3065ZM11.0239 15.3065H16.9445V17.6525H13.4063V19.9985H25.3065V22.3454H11.0239V15.3065ZM39.9 30.1596C40.3132 29.7362 40.5753 29.2121 40.6862 28.5871C40.7164 28.4057 40.7316 28.2293 40.7316 28.0579C40.7316 27.3422 40.4644 26.7929 39.9302 26.4098C39.396 26.0167 38.645 25.8201 37.6773 25.8201H32.5668L30.6768 36.4797H35.9536C37.0927 36.4797 38.02 36.2227 38.7357 35.7086C39.4514 35.1945 39.8848 34.4839 40.036 33.5767C40.0663 33.4053 40.0814 33.239 40.0814 33.0777C40.0814 32.5637 39.9352 32.1201 39.6429 31.7472C39.3607 31.3742 38.9625 31.1273 38.4484 31.0063C39.0129 30.8551 39.4968 30.5729 39.9 30.1596ZM37.5715 28.9046C37.5715 29.0054 37.5664 29.081 37.5564 29.1314C37.4455 29.7564 37.0221 30.0689 36.2863 30.0689H34.7894L35.122 28.1789H36.6189C37.254 28.1789 37.5715 28.4208 37.5715 28.9046ZM37.1028 32.9417C37.1028 33.0324 37.0977 33.1029 37.0876 33.1533C36.9667 33.7884 36.5383 34.1059 35.8024 34.1059H34.0788L34.4114 32.1554H36.12C36.4425 32.1554 36.6844 32.226 36.8457 32.3671C37.0171 32.4981 37.1028 32.6897 37.1028 32.9417Z" fill="url(#paint0_linear_2321_95)"/>
<defs>
<linearGradient id="paint0_linear_2321_95" x1="24.686" y1="12.9604" x2="24.686" y2="36.4796" gradientUnits="userSpaceOnUse">
<stop stop-color="#FFD100"/>
<stop offset="1" stop-color="#F89542"/>
</linearGradient>
</defs>
</svg>
