<svg width="110" height="34" viewBox="0 0 110 34" fill="none" xmlns="http://www.w3.org/2000/svg">
<path d="M9.184 6.88V13.696H20.176V20.032H9.184V27.424H21.616V34H0.976V0.303999H21.616V6.88H9.184ZM38.6088 0.303999C42.1608 0.303999 45.2648 1.008 47.9208 2.416C50.5768 3.824 52.6248 5.808 54.0648 8.368C55.5368 10.896 56.2728 13.824 56.2728 17.152C56.2728 20.448 55.5368 23.376 54.0648 25.936C52.6248 28.496 50.5608 30.48 47.8728 31.888C45.2168 33.296 42.1288 34 38.6088 34H25.9848V0.303999H38.6088ZM38.0808 26.896C41.1848 26.896 43.6008 26.048 45.3288 24.352C47.0568 22.656 47.9208 20.256 47.9208 17.152C47.9208 14.048 47.0568 11.632 45.3288 9.904C43.6008 8.176 41.1848 7.312 38.0808 7.312H34.1928V26.896H38.0808ZM68.1078 6.88V13.696H79.0998V20.032H68.1078V27.424H80.5398V34H59.8998V0.303999H80.5398V6.88H68.1078ZM109.149 0.303999V6.88H100.221V34H92.0125V6.88H83.0845V0.303999H109.149Z" fill="url(#paint0_linear_2321_132)"/>
<defs>
<linearGradient id="paint0_linear_2321_132" x1="54.5" y1="-10" x2="54.5" y2="44" gradientUnits="userSpaceOnUse">
<stop stop-color="#FFD100"/>
<stop offset="1" stop-color="#F89542"/>
</linearGradient>
</defs>
</svg>
