<svg width="54" height="54" viewBox="0 0 54 54" fill="none" xmlns="http://www.w3.org/2000/svg">
<g clip-path="url(#clip0_2310_1242)">
<circle cx="27" cy="27" r="27" fill="white" fill-opacity="0.05"/>
<path fill-rule="evenodd" clip-rule="evenodd" d="M9.85547 16.6913C9.85547 15.3012 10.9993 14.1748 12.411 14.1748H40.785C42.1967 14.1748 43.3405 15.3012 43.3405 16.6913V23.9076C42.4992 23.5772 41.6022 23.3577 40.6675 23.267V22.0926H33.966V19.4534H37.9862V16.8141H31.2858V24.7329H34.4019C33.1461 25.5181 32.0773 26.5745 31.2776 27.8202V27.3803H27.2982V27.3722H24.617V30.0195H30.2207C29.9392 30.8553 29.7653 31.7406 29.7154 32.6588H24.5914V35.2991H29.9193C30.1182 36.2339 30.4479 37.1204 30.8882 37.9384H12.411C10.9993 37.9384 9.85547 36.812 9.85547 35.4219V16.6913ZM12.5285 35.2991H21.9102V27.3803H15.2097V30.0195H19.23V32.6588H12.5285V35.2991ZM25.8978 16.8141H21.9184V19.4534H28.579V16.806H25.8978V16.8141ZM19.1973 16.8141H12.5367V24.7329H28.6046V22.0926H15.2169V19.4534H19.1973V16.8141Z" fill="url(#paint0_linear_2310_1242)"/>
<path d="M43.4896 28.9538C43.7938 27.5986 42.9341 26.2421 41.5838 25.9461C40.2381 25.6511 38.915 26.5023 38.5975 27.8672C38.2852 29.2097 39.1464 30.5792 40.4945 30.884C41.8339 31.1868 43.1837 30.3169 43.4896 28.9538ZM34.3104 31.7415C34.6527 31.7585 34.9811 31.7692 35.3087 31.794C35.4084 31.8014 35.4544 31.7791 35.4977 31.685C35.917 30.7717 36.5558 30.0544 37.4114 29.5347C37.5992 29.4208 37.5958 29.423 37.5501 29.201C37.5191 29.0498 37.4964 28.8964 37.4805 28.7428C37.4655 28.596 37.4637 28.4475 37.4555 28.2828C35.9371 29.0187 34.8896 30.1647 34.3103 31.7409L34.3104 31.7415ZM45.7647 34.2699C45.9004 32.5766 45.4259 31.0969 44.3766 29.8207C44.1771 30.1249 43.9805 30.42 43.7916 30.7196C43.7731 30.749 43.7859 30.8145 43.8067 30.8503C43.9348 31.0727 44.0832 31.2843 44.1991 31.5129C44.5494 32.2042 44.7192 32.9425 44.7112 33.7205C44.7103 33.8147 44.7411 33.8555 44.8262 33.8773C44.9161 33.9002 45.0062 33.9266 45.0911 33.9637C45.3115 34.0597 45.529 34.1625 45.7649 34.2705L45.7647 34.2699ZM40.9578 39.5626C40.7958 39.234 40.6438 38.9198 40.4841 38.6095C40.4674 38.5773 40.4046 38.5531 40.3631 38.5533C40.2331 38.5534 40.1036 38.5715 39.9736 38.5745C39.0672 38.5964 38.2227 38.3749 37.4409 37.9171C37.3626 37.8713 37.313 37.8714 37.2493 37.9392C37.1725 38.0205 37.0878 38.0964 36.9979 38.163C36.8191 38.2959 36.6346 38.4209 36.436 38.561C37.8176 39.5171 39.323 39.8479 40.9581 39.5627L40.9578 39.5626Z" fill="url(#paint1_linear_2310_1242)"/>
<path d="M32.3634 34.5933C32.4758 34.3731 32.5646 34.1364 32.704 33.9351C33.73 32.4522 35.8532 32.4686 36.8547 33.9604C37.8047 35.3754 37.0356 37.3855 35.3866 37.7968C33.7939 38.1941 32.3137 37.0666 32.2572 35.412C32.2533 35.2954 32.2595 35.1784 32.261 35.0617C32.2953 34.9055 32.3294 34.7496 32.3637 34.5934L32.3634 34.5933Z" fill="url(#paint2_linear_2310_1242)"/>
<path d="M46.2389 38.1257C46.1085 38.4269 45.967 38.7199 45.7538 38.9758C45.0835 39.7806 43.9475 40.0854 42.9627 39.7171C41.9861 39.3517 41.3292 38.3931 41.3413 37.3502C41.3571 35.9832 42.3856 34.9014 43.7419 34.8256C45.2265 34.7427 46.4811 36.0573 46.339 37.5465C46.3355 37.5832 46.3405 37.6204 46.3415 37.6576L46.2388 38.126L46.2389 38.1257Z" fill="url(#paint3_linear_2310_1242)"/>
<path d="M43.4896 28.9538C43.1837 30.3169 41.8339 31.1865 40.4945 30.884C39.1464 30.5792 38.2854 29.21 38.5975 27.8672C38.915 26.5023 40.2381 25.6511 41.5838 25.9461C42.9341 26.2421 43.7941 27.5986 43.4896 28.9538Z" fill="url(#paint4_linear_2310_1242)"/>
<path d="M34.3104 31.7415C34.8897 30.1653 35.937 29.0192 37.4556 28.2834C37.4639 28.4481 37.4657 28.5963 37.4807 28.7434C37.4965 28.897 37.519 29.0504 37.5502 29.2016C37.596 29.4236 37.5993 29.4214 37.4116 29.5354C36.556 30.055 35.9172 30.7723 35.4979 31.6856C35.4546 31.7798 35.4083 31.8019 35.3089 31.7946C34.9815 31.7699 34.6529 31.7588 34.3106 31.7421L34.3104 31.7415Z" fill="url(#paint5_linear_2310_1242)"/>
<path d="M45.7647 34.2702C45.5288 34.1622 45.3113 34.0596 45.0909 33.9634C45.006 33.9263 44.9159 33.9002 44.826 33.877C44.7409 33.8552 44.7101 33.8143 44.711 33.7201C44.719 32.9422 44.5492 32.2039 44.1989 31.5126C44.083 31.2839 43.9348 31.0727 43.8065 30.8499C43.786 30.8142 43.7729 30.7487 43.7914 30.7193C43.9803 30.4197 44.1769 30.1246 44.3764 29.8204C45.4256 31.0969 45.8999 32.5762 45.7645 34.2696L45.7647 34.2702Z" fill="url(#paint6_linear_2310_1242)"/>
<path d="M40.9578 39.5626C39.323 39.8479 37.8172 39.5173 36.4357 38.561C36.6344 38.4209 36.8189 38.2959 36.9976 38.163C37.0872 38.0962 37.1722 38.0205 37.249 37.9391C37.3127 37.8716 37.3623 37.8712 37.4407 37.917C38.2225 38.3746 39.067 38.596 39.9733 38.5744C40.1033 38.5714 40.2329 38.5533 40.3628 38.5532C40.4043 38.5531 40.4671 38.5772 40.4838 38.6095C40.6438 38.9198 40.7958 39.234 40.9576 39.5626L40.9578 39.5626Z" fill="url(#paint7_linear_2310_1242)"/>
</g>
<defs>
<linearGradient id="paint0_linear_2310_1242" x1="26.598" y1="14.1748" x2="26.598" y2="37.9384" gradientUnits="userSpaceOnUse">
<stop stop-color="#FFD100"/>
<stop offset="1" stop-color="#F89542"/>
</linearGradient>
<linearGradient id="paint1_linear_2310_1242" x1="41.5838" y1="25.9461" x2="38.6065" y2="39.5285" gradientUnits="userSpaceOnUse">
<stop stop-color="#FFD101"/>
<stop offset="1" stop-color="#F99840"/>
</linearGradient>
<linearGradient id="paint2_linear_2310_1242" x1="41.5838" y1="25.9461" x2="38.6065" y2="39.5285" gradientUnits="userSpaceOnUse">
<stop stop-color="#FFD101"/>
<stop offset="1" stop-color="#F99840"/>
</linearGradient>
<linearGradient id="paint3_linear_2310_1242" x1="41.5838" y1="25.9461" x2="38.6065" y2="39.5285" gradientUnits="userSpaceOnUse">
<stop stop-color="#FFD101"/>
<stop offset="1" stop-color="#F99840"/>
</linearGradient>
<linearGradient id="paint4_linear_2310_1242" x1="41.5838" y1="25.9461" x2="38.6065" y2="39.5285" gradientUnits="userSpaceOnUse">
<stop stop-color="#FFD101"/>
<stop offset="1" stop-color="#F99840"/>
</linearGradient>
<linearGradient id="paint5_linear_2310_1242" x1="41.5838" y1="25.9461" x2="38.6065" y2="39.5285" gradientUnits="userSpaceOnUse">
<stop stop-color="#FFD101"/>
<stop offset="1" stop-color="#F99840"/>
</linearGradient>
<linearGradient id="paint6_linear_2310_1242" x1="41.5838" y1="25.9461" x2="38.6065" y2="39.5285" gradientUnits="userSpaceOnUse">
<stop stop-color="#FFD101"/>
<stop offset="1" stop-color="#F99840"/>
</linearGradient>
<linearGradient id="paint7_linear_2310_1242" x1="41.5838" y1="25.9461" x2="38.6065" y2="39.5285" gradientUnits="userSpaceOnUse">
<stop stop-color="#FFD101"/>
<stop offset="1" stop-color="#F99840"/>
</linearGradient>
<clipPath id="clip0_2310_1242">
<rect width="54" height="54" fill="white"/>
</clipPath>
</defs>
</svg>
