<svg width="416" height="49" viewBox="0 0 416 49" fill="none" xmlns="http://www.w3.org/2000/svg">
<path d="M25.112 2.496V7.92H16.184V36H9.464V7.92H0.536V2.496H25.112ZM35.7751 13.536C36.6391 12.128 37.7591 11.024 39.1351 10.224C40.5431 9.424 42.1431 9.024 43.9351 9.024V16.08H42.1591C40.0471 16.08 38.4471 16.576 37.3591 17.568C36.3031 18.56 35.7751 20.288 35.7751 22.752V36H29.0551V9.408H35.7751V13.536ZM45.7734 22.608C45.7734 19.92 46.3014 17.536 47.3574 15.456C48.4454 13.376 49.9014 11.776 51.7254 10.656C53.5814 9.536 55.6454 8.976 57.9174 8.976C59.9014 8.976 61.6294 9.376 63.1014 10.176C64.6054 10.976 65.8054 11.984 66.7014 13.2V9.408H73.4694V36H66.7014V32.112C65.8374 33.36 64.6374 34.4 63.1014 35.232C61.5974 36.032 59.8534 36.432 57.8694 36.432C55.6294 36.432 53.5814 35.856 51.7254 34.704C49.9014 33.552 48.4454 31.936 47.3574 29.856C46.3014 27.744 45.7734 25.328 45.7734 22.608ZM66.7014 22.704C66.7014 21.072 66.3814 19.68 65.7414 18.528C65.1014 17.344 64.2374 16.448 63.1494 15.84C62.0614 15.2 60.8934 14.88 59.6454 14.88C58.3974 14.88 57.2454 15.184 56.1894 15.792C55.1334 16.4 54.2694 17.296 53.5974 18.48C52.9574 19.632 52.6374 21.008 52.6374 22.608C52.6374 24.208 52.9574 25.616 53.5974 26.832C54.2694 28.016 55.1334 28.928 56.1894 29.568C57.2774 30.208 58.4294 30.528 59.6454 30.528C60.8934 30.528 62.0614 30.224 63.1494 29.616C64.2374 28.976 65.1014 28.08 65.7414 26.928C66.3814 25.744 66.7014 24.336 66.7014 22.704ZM77.3446 22.608C77.3446 19.92 77.8726 17.536 78.9286 15.456C80.0166 13.376 81.4886 11.776 83.3446 10.656C85.2006 9.536 87.2646 8.976 89.5366 8.976C91.2646 8.976 92.9126 9.36 94.4806 10.128C96.0486 10.864 97.2966 11.856 98.2246 13.104V0.48H105.041V36H98.2246V32.064C97.3926 33.376 96.2246 34.432 94.7206 35.232C93.2166 36.032 91.4726 36.432 89.4886 36.432C87.2486 36.432 85.2006 35.856 83.3446 34.704C81.4886 33.552 80.0166 31.936 78.9286 29.856C77.8726 27.744 77.3446 25.328 77.3446 22.608ZM98.2726 22.704C98.2726 21.072 97.9526 19.68 97.3126 18.528C96.6726 17.344 95.8086 16.448 94.7206 15.84C93.6326 15.2 92.4646 14.88 91.2166 14.88C89.9686 14.88 88.8166 15.184 87.7606 15.792C86.7046 16.4 85.8406 17.296 85.1686 18.48C84.5286 19.632 84.2086 21.008 84.2086 22.608C84.2086 24.208 84.5286 25.616 85.1686 26.832C85.8406 28.016 86.7046 28.928 87.7606 29.568C88.8486 30.208 90.0006 30.528 91.2166 30.528C92.4646 30.528 93.6326 30.224 94.7206 29.616C95.8086 28.976 96.6726 28.08 97.3126 26.928C97.9526 25.744 98.2726 24.336 98.2726 22.704ZM135.364 22.128C135.364 23.088 135.3 23.952 135.172 24.72H115.732C115.892 26.64 116.564 28.144 117.748 29.232C118.932 30.32 120.388 30.864 122.116 30.864C124.612 30.864 126.388 29.792 127.444 27.648H134.692C133.924 30.208 132.452 32.32 130.276 33.984C128.1 35.616 125.428 36.432 122.26 36.432C119.7 36.432 117.396 35.872 115.348 34.752C113.332 33.6 111.748 31.984 110.596 29.904C109.476 27.824 108.916 25.424 108.916 22.704C108.916 19.952 109.476 17.536 110.596 15.456C111.716 13.376 113.284 11.776 115.3 10.656C117.316 9.536 119.636 8.976 122.26 8.976C124.788 8.976 127.044 9.52 129.028 10.608C131.044 11.696 132.596 13.248 133.684 15.264C134.804 17.248 135.364 19.536 135.364 22.128ZM128.404 20.208C128.372 18.48 127.748 17.104 126.532 16.08C125.316 15.024 123.828 14.496 122.068 14.496C120.404 14.496 118.996 15.008 117.844 16.032C116.724 17.024 116.036 18.416 115.78 20.208H128.404ZM174.218 12.864C174.218 14.656 173.786 16.336 172.922 17.904C172.09 19.472 170.762 20.736 168.938 21.696C167.146 22.656 164.874 23.136 162.122 23.136H156.506V36H149.786V2.496H162.122C164.714 2.496 166.922 2.944 168.746 3.84C170.57 4.736 171.93 5.968 172.826 7.536C173.754 9.104 174.218 10.88 174.218 12.864ZM161.834 17.712C163.69 17.712 165.066 17.296 165.962 16.464C166.858 15.6 167.306 14.4 167.306 12.864C167.306 9.6 165.482 7.968 161.834 7.968H156.506V17.712H161.834ZM202.75 22.128C202.75 23.088 202.686 23.952 202.558 24.72H183.117C183.277 26.64 183.949 28.144 185.133 29.232C186.317 30.32 187.773 30.864 189.502 30.864C191.997 30.864 193.773 29.792 194.83 27.648H202.078C201.309 30.208 199.837 32.32 197.661 33.984C195.485 35.616 192.813 36.432 189.645 36.432C187.085 36.432 184.781 35.872 182.733 34.752C180.717 33.6 179.133 31.984 177.981 29.904C176.861 27.824 176.301 25.424 176.301 22.704C176.301 19.952 176.861 17.536 177.981 15.456C179.101 13.376 180.669 11.776 182.685 10.656C184.701 9.536 187.021 8.976 189.645 8.976C192.173 8.976 194.429 9.52 196.413 10.608C198.43 11.696 199.982 13.248 201.069 15.264C202.19 17.248 202.75 19.536 202.75 22.128ZM195.789 20.208C195.757 18.48 195.133 17.104 193.917 16.08C192.701 15.024 191.213 14.496 189.453 14.496C187.789 14.496 186.381 15.008 185.229 16.032C184.109 17.024 183.421 18.416 183.165 20.208H195.789ZM213.415 13.536C214.279 12.128 215.399 11.024 216.775 10.224C218.183 9.424 219.783 9.024 221.575 9.024V16.08H219.799C217.687 16.08 216.087 16.576 214.999 17.568C213.943 18.56 213.415 20.288 213.415 22.752V36H206.695V9.408H213.415V13.536ZM231.861 13.248C232.725 12.032 233.909 11.024 235.413 10.224C236.949 9.392 238.693 8.976 240.645 8.976C242.917 8.976 244.965 9.536 246.789 10.656C248.645 11.776 250.101 13.376 251.157 15.456C252.245 17.504 252.789 19.888 252.789 22.608C252.789 25.328 252.245 27.744 251.157 29.856C250.101 31.936 248.645 33.552 246.789 34.704C244.965 35.856 242.917 36.432 240.645 36.432C238.693 36.432 236.965 36.032 235.461 35.232C233.989 34.432 232.789 33.424 231.861 32.208V48.672H225.141V9.408H231.861V13.248ZM245.925 22.608C245.925 21.008 245.589 19.632 244.917 18.48C244.277 17.296 243.413 16.4 242.325 15.792C241.269 15.184 240.117 14.88 238.869 14.88C237.653 14.88 236.501 15.2 235.413 15.84C234.357 16.448 233.493 17.344 232.821 18.528C232.181 19.712 231.861 21.104 231.861 22.704C231.861 24.304 232.181 25.696 232.821 26.88C233.493 28.064 234.357 28.976 235.413 29.616C236.501 30.224 237.653 30.528 238.869 30.528C240.117 30.528 241.269 30.208 242.325 29.568C243.413 28.928 244.277 28.016 244.917 26.832C245.589 25.648 245.925 24.24 245.925 22.608ZM281.432 22.128C281.432 23.088 281.368 23.952 281.24 24.72H261.8C261.96 26.64 262.632 28.144 263.816 29.232C265 30.32 266.456 30.864 268.184 30.864C270.68 30.864 272.456 29.792 273.512 27.648H280.76C279.992 30.208 278.52 32.32 276.344 33.984C274.168 35.616 271.496 36.432 268.328 36.432C265.768 36.432 263.464 35.872 261.416 34.752C259.4 33.6 257.816 31.984 256.664 29.904C255.544 27.824 254.984 25.424 254.984 22.704C254.984 19.952 255.544 17.536 256.664 15.456C257.784 13.376 259.352 11.776 261.368 10.656C263.384 9.536 265.704 8.976 268.328 8.976C270.856 8.976 273.112 9.52 275.096 10.608C277.112 11.696 278.664 13.248 279.752 15.264C280.872 17.248 281.432 19.536 281.432 22.128ZM274.472 20.208C274.44 18.48 273.816 17.104 272.6 16.08C271.384 15.024 269.896 14.496 268.136 14.496C266.472 14.496 265.064 15.008 263.912 16.032C262.792 17.024 262.104 18.416 261.848 20.208H274.472ZM293.201 14.928V27.792C293.201 28.688 293.409 29.344 293.825 29.76C294.273 30.144 295.009 30.336 296.033 30.336H299.153V36H294.929C289.265 36 286.433 33.248 286.433 27.744V14.928H283.265V9.408H286.433V2.832H293.201V9.408H299.153V14.928H293.201ZM328.13 9.408V36H321.362V32.64C320.498 33.792 319.362 34.704 317.954 35.376C316.578 36.016 315.074 36.336 313.442 36.336C311.362 36.336 309.522 35.904 307.922 35.04C306.322 34.144 305.058 32.848 304.13 31.152C303.234 29.424 302.786 27.376 302.786 25.008V9.408H309.506V24.048C309.506 26.16 310.034 27.792 311.09 28.944C312.146 30.064 313.586 30.624 315.41 30.624C317.266 30.624 318.722 30.064 319.778 28.944C320.834 27.792 321.362 26.16 321.362 24.048V9.408H328.13ZM332.073 22.608C332.073 19.92 332.601 17.536 333.657 15.456C334.745 13.376 336.201 11.776 338.025 10.656C339.881 9.536 341.945 8.976 344.217 8.976C346.201 8.976 347.929 9.376 349.401 10.176C350.905 10.976 352.105 11.984 353.001 13.2V9.408H359.769V36H353.001V32.112C352.137 33.36 350.937 34.4 349.401 35.232C347.897 36.032 346.153 36.432 344.169 36.432C341.929 36.432 339.881 35.856 338.025 34.704C336.201 33.552 334.745 31.936 333.657 29.856C332.601 27.744 332.073 25.328 332.073 22.608ZM353.001 22.704C353.001 21.072 352.681 19.68 352.041 18.528C351.401 17.344 350.537 16.448 349.449 15.84C348.361 15.2 347.193 14.88 345.945 14.88C344.697 14.88 343.545 15.184 342.489 15.792C341.433 16.4 340.569 17.296 339.897 18.48C339.257 19.632 338.937 21.008 338.937 22.608C338.937 24.208 339.257 25.616 339.897 26.832C340.569 28.016 341.433 28.928 342.489 29.568C343.577 30.208 344.729 30.528 345.945 30.528C347.193 30.528 348.361 30.224 349.449 29.616C350.537 28.976 351.401 28.08 352.041 26.928C352.681 25.744 353.001 24.336 353.001 22.704ZM372.092 0.48V36H365.372V0.48H372.092ZM384.491 0.48V36H377.771V0.48H384.491ZM415.611 9.408L399.147 48.576H391.995L397.755 35.328L387.099 9.408H394.635L401.499 27.984L408.459 9.408H415.611Z" fill="url(#paint0_linear_2321_123)"/>
<defs>
<linearGradient id="paint0_linear_2321_123" x1="207.5" y1="-8" x2="207.5" y2="46" gradientUnits="userSpaceOnUse">
<stop stop-color="#FFD100"/>
<stop offset="1" stop-color="#F89542"/>
</linearGradient>
</defs>
</svg>
