<svg width="600" height="110" viewBox="0 0 600 110" fill="none" xmlns="http://www.w3.org/2000/svg">
<g clip-path="url(#clip0_1009_173)">
<rect width="600" height="110" rx="10" fill="url(#paint0_linear_1009_173)"/>
<g clip-path="url(#clip1_1009_173)">
<g opacity="0.4">
<path d="M549.147 56.1858L558.454 81.8128L406.618 157.917L397.311 132.29L549.147 56.1858Z" fill="url(#paint1_linear_1009_173)"/>
<path d="M541.464 67.2339L550.771 92.861L428.621 154.085L419.314 128.458L541.464 67.2339Z" fill="url(#paint2_linear_1009_173)"/>
<path d="M533.777 78.282L543.084 103.909L450.625 150.253L441.318 124.622L533.777 78.282Z" fill="url(#paint3_linear_1009_173)"/>
<path d="M526.094 89.3301L535.401 114.957L472.629 146.417L463.326 120.79L526.094 89.3301Z" fill="url(#paint4_linear_1009_173)"/>
<path d="M518.409 100.374L527.716 126.001L494.635 142.585L485.328 116.958L518.409 100.374Z" fill="url(#paint5_linear_1009_173)"/>
<path d="M622.378 93.0868L631.681 118.714L558.455 81.8128L549.148 56.1858L622.378 93.0868Z" fill="url(#paint6_linear_1009_173)"/>
<path d="M600.379 96.9148L609.686 122.546L550.772 92.861L541.465 67.2339L600.379 96.9148Z" fill="url(#paint7_linear_1009_173)"/>
<path d="M578.368 100.751L587.674 126.378L543.084 103.909L533.777 78.282L578.368 100.751Z" fill="url(#paint8_linear_1009_173)"/>
<path d="M556.372 104.583L565.679 130.21L535.401 114.957L526.094 89.3301L556.372 104.583Z" fill="url(#paint9_linear_1009_173)"/>
<path d="M534.369 108.415L543.676 134.042L527.717 126.001L518.41 100.374L534.369 108.415Z" fill="url(#paint10_linear_1009_173)"/>
<path d="M538.051 107.773L547.358 133.404L509.305 152.476L499.998 126.849L538.051 107.773Z" fill="url(#paint11_linear_1009_173)"/>
<path d="M528.134 86.3937L562.211 103.564L491.565 138.983L457.496 121.809L528.134 86.3937ZM463.326 120.79L493.601 136.047L556.372 104.583L526.094 89.3301L463.326 120.79Z" fill="url(#paint12_linear_1009_173)"/>
<path d="M519.7 98.5276L538.052 107.773L499.999 126.845L481.646 117.6L519.7 98.5276ZM485.33 116.97L501.288 124.999L534.373 108.415L518.414 100.374L485.33 116.97Z" fill="url(#paint13_linear_1009_173)"/>
<path d="M562.21 103.564L571.517 129.191L500.864 164.61L491.557 138.983L562.21 103.564Z" fill="url(#paint14_linear_1009_173)"/>
<path d="M586.369 99.3559L595.676 124.983L492.426 176.74L483.119 151.113L586.369 99.3559Z" fill="url(#paint15_linear_1009_173)"/>
<path d="M610.534 95.1474L619.841 120.774L483.987 188.87L474.684 163.243L610.534 95.1474Z" fill="url(#paint16_linear_1009_173)"/>
<path d="M553.45 50L634.693 90.939L466.243 175.373L385 134.434L553.45 50ZM397.303 132.29L470.537 169.191L622.366 93.1066L549.148 56.1858L397.303 132.29Z" fill="url(#paint17_linear_1009_173)"/>
<path d="M545.008 62.1339L610.534 95.1474L474.696 163.243L409.158 130.226L545.008 62.1339ZM419.315 128.462L478.228 158.143L600.378 96.9148L541.464 67.2339L419.315 128.462Z" fill="url(#paint18_linear_1009_173)"/>
<path d="M536.57 74.2638L586.368 99.3559L483.118 151.113L433.316 126.017L536.57 74.2638ZM441.318 124.622L485.912 147.087L578.386 100.723L533.776 78.282L441.302 124.622" fill="url(#paint19_linear_1009_173)"/>
<path d="M634.693 90.939L644 116.566L475.549 201L466.242 175.373L634.693 90.939Z" fill="url(#paint20_linear_1009_173)"/>
<path style="mix-blend-mode:overlay" d="M528.133 86.3937L457.487 121.809L491.556 138.983L562.202 103.564L528.133 86.3937ZM463.325 120.79L526.093 89.3301L556.371 104.583L493.6 136.047L463.325 120.79ZM519.683 98.5276L481.63 117.6L499.982 126.845L538.035 107.773L519.683 98.5276ZM485.329 116.97L518.409 100.386L534.368 108.427L501.288 124.999L485.329 116.97ZM553.45 50L385 134.434L466.243 175.373L634.693 90.939L553.45 50ZM397.303 132.29L549.14 56.2056L622.366 93.1066L470.537 169.191L397.303 132.29ZM545.001 62.1497L409.158 130.226L474.696 163.243L610.55 95.1474L545.001 62.1497ZM419.315 128.462L541.464 67.2339L600.378 96.9148L478.229 158.143L419.315 128.462ZM536.571 74.2638L433.317 126.017L483.118 151.113L586.368 99.3559L536.571 74.2638ZM441.318 124.622L533.793 78.282L578.383 100.751L485.912 147.087L441.318 124.622Z" fill="url(#paint21_radial_1009_173)"/>
</g>
</g>
<path opacity="0.8" d="M248.76 15H265.32V99H248.76V15ZM295.467 99C292.027 99 289.227 97.96 287.067 95.88C284.907 93.8 283.827 91.08 283.827 87.72V15H323.907C330.307 15 335.907 16.2 340.707 18.6C345.587 21 349.347 24.4 351.987 28.8C354.707 33.2 356.067 38.28 356.067 44.04V67.56C356.067 77.88 353.387 85.72 348.027 91.08C342.667 96.36 334.787 99 324.387 99H295.467ZM323.907 84.36C329.027 84.36 332.907 82.88 335.547 79.92C338.187 76.96 339.507 72.6 339.507 66.84V44.76C339.507 40.2 338.027 36.56 335.067 33.84C332.107 31.04 328.227 29.64 323.427 29.64H300.387V84.36H323.907ZM400.125 99.96C393.805 99.96 388.205 98.64 383.325 96C378.525 93.28 374.765 89.52 372.045 84.72C369.405 79.84 368.085 74.2 368.085 67.8V46.2C368.085 39.8 369.405 34.2 372.045 29.4C374.765 24.52 378.525 20.76 383.325 18.12C388.205 15.4 393.805 14.04 400.125 14.04H412.845C419.165 14.04 424.725 15.4 429.525 18.12C434.405 20.76 438.165 24.52 440.805 29.4C443.525 34.2 444.885 39.8 444.885 46.2V67.8C444.885 74.2 443.525 79.84 440.805 84.72C438.165 89.52 434.405 93.28 429.525 96C424.725 98.64 419.165 99.96 412.845 99.96H400.125ZM412.845 85.32C417.485 85.32 421.205 83.64 424.005 80.28C426.885 76.92 428.325 72.52 428.325 67.08V46.92C428.325 41.48 426.885 37.08 424.005 33.72C421.205 30.36 417.485 28.68 412.845 28.68H400.125C395.485 28.68 391.725 30.36 388.845 33.72C386.045 37.08 384.645 41.48 384.645 46.92V67.08C384.645 72.52 386.045 76.92 388.845 80.28C391.725 83.64 395.485 85.32 400.125 85.32H412.845Z" fill="url(#paint22_linear_1009_173)"/>
<rect x="491" y="44" width="93" height="32" rx="5" fill="#F89542"/>
<path d="M511.028 55.172V61.864C511.028 62.9 510.734 63.698 510.146 64.258C509.567 64.818 508.783 65.098 507.794 65.098C506.758 65.098 505.927 64.804 505.302 64.216C504.677 63.628 504.364 62.7927 504.364 61.71H506.744C506.744 62.1207 506.828 62.4333 506.996 62.648C507.164 62.8533 507.407 62.956 507.724 62.956C508.013 62.956 508.237 62.8627 508.396 62.676C508.555 62.4893 508.634 62.2187 508.634 61.864V55.172H511.028ZM516.364 65.112C515.598 65.112 514.908 64.9487 514.292 64.622C513.685 64.2953 513.204 63.8287 512.85 63.222C512.504 62.6153 512.332 61.906 512.332 61.094C512.332 60.2913 512.509 59.5867 512.864 58.98C513.218 58.364 513.704 57.8927 514.32 57.566C514.936 57.2393 515.626 57.076 516.392 57.076C517.157 57.076 517.848 57.2393 518.464 57.566C519.08 57.8927 519.565 58.364 519.92 58.98C520.274 59.5867 520.452 60.2913 520.452 61.094C520.452 61.8967 520.27 62.606 519.906 63.222C519.551 63.8287 519.061 64.2953 518.436 64.622C517.82 64.9487 517.129 65.112 516.364 65.112ZM516.364 63.04C516.821 63.04 517.208 62.872 517.526 62.536C517.852 62.2 518.016 61.7193 518.016 61.094C518.016 60.4687 517.857 59.988 517.54 59.652C517.232 59.316 516.849 59.148 516.392 59.148C515.925 59.148 515.538 59.316 515.23 59.652C514.922 59.9787 514.768 60.4593 514.768 61.094C514.768 61.7193 514.917 62.2 515.216 62.536C515.524 62.872 515.906 63.04 516.364 63.04ZM522.772 56.376C522.352 56.376 522.006 56.2547 521.736 56.012C521.474 55.76 521.344 55.452 521.344 55.088C521.344 54.7147 521.474 54.4067 521.736 54.164C522.006 53.912 522.352 53.786 522.772 53.786C523.182 53.786 523.518 53.912 523.78 54.164C524.05 54.4067 524.186 54.7147 524.186 55.088C524.186 55.452 524.05 55.76 523.78 56.012C523.518 56.2547 523.182 56.376 522.772 56.376ZM523.962 57.188V65H521.568V57.188H523.962ZM530.303 57.104C531.217 57.104 531.945 57.4027 532.487 58C533.037 58.588 533.313 59.4 533.313 60.436V65H530.933V60.758C530.933 60.2353 530.797 59.8293 530.527 59.54C530.256 59.2507 529.892 59.106 529.435 59.106C528.977 59.106 528.613 59.2507 528.343 59.54C528.072 59.8293 527.937 60.2353 527.937 60.758V65H525.543V57.188H527.937V58.224C528.179 57.8787 528.506 57.608 528.917 57.412C529.327 57.2067 529.789 57.104 530.303 57.104ZM546.427 65H544.033L540.029 58.938V65H537.635V55.172H540.029L544.033 61.262V55.172H546.427V65ZM551.564 65.112C550.799 65.112 550.108 64.9487 549.492 64.622C548.886 64.2953 548.405 63.8287 548.05 63.222C547.705 62.6153 547.532 61.906 547.532 61.094C547.532 60.2913 547.71 59.5867 548.064 58.98C548.419 58.364 548.904 57.8927 549.52 57.566C550.136 57.2393 550.827 57.076 551.592 57.076C552.358 57.076 553.048 57.2393 553.664 57.566C554.28 57.8927 554.766 58.364 555.12 58.98C555.475 59.5867 555.652 60.2913 555.652 61.094C555.652 61.8967 555.47 62.606 555.106 63.222C554.752 63.8287 554.262 64.2953 553.636 64.622C553.02 64.9487 552.33 65.112 551.564 65.112ZM551.564 63.04C552.022 63.04 552.409 62.872 552.726 62.536C553.053 62.2 553.216 61.7193 553.216 61.094C553.216 60.4687 553.058 59.988 552.74 59.652C552.432 59.316 552.05 59.148 551.592 59.148C551.126 59.148 550.738 59.316 550.43 59.652C550.122 59.9787 549.968 60.4593 549.968 61.094C549.968 61.7193 550.118 62.2 550.416 62.536C550.724 62.872 551.107 63.04 551.564 63.04ZM567.983 57.188L565.869 65H563.223L561.991 59.932L560.717 65H558.085L555.957 57.188H558.351L559.457 62.774L560.773 57.188H563.307L564.637 62.746L565.729 57.188H567.983Z" fill="white"/>
<path d="M30.024 32.786V36.98H34.596V38.33H30.024V42.65H35.136V44H28.386V31.436H35.136V32.786H30.024ZM39.0545 30.68V44H37.4165V30.68H39.0545ZM50.155 31.454C51.523 31.454 52.705 31.712 53.701 32.228C54.709 32.732 55.477 33.458 56.005 34.406C56.545 35.354 56.815 36.47 56.815 37.754C56.815 39.038 56.545 40.154 56.005 41.102C55.477 42.038 54.709 42.758 53.701 43.262C52.705 43.754 51.523 44 50.155 44H46.249V31.454H50.155ZM50.155 42.65C51.775 42.65 53.011 42.224 53.863 41.372C54.715 40.508 55.141 39.302 55.141 37.754C55.141 36.194 54.709 34.976 53.845 34.1C52.993 33.224 51.763 32.786 50.155 32.786H47.887V42.65H50.155ZM63.0796 44.162C62.1556 44.162 61.3156 43.952 60.5596 43.532C59.8156 43.112 59.2276 42.518 58.7956 41.75C58.3756 40.97 58.1656 40.07 58.1656 39.05C58.1656 38.042 58.3816 37.154 58.8136 36.386C59.2576 35.606 59.8576 35.012 60.6136 34.604C61.3696 34.184 62.2156 33.974 63.1516 33.974C64.0876 33.974 64.9336 34.184 65.6896 34.604C66.4456 35.012 67.0396 35.6 67.4716 36.368C67.9156 37.136 68.1376 38.03 68.1376 39.05C68.1376 40.07 67.9096 40.97 67.4536 41.75C67.0096 42.518 66.4036 43.112 65.6356 43.532C64.8676 43.952 64.0156 44.162 63.0796 44.162ZM63.0796 42.722C63.6676 42.722 64.2196 42.584 64.7356 42.308C65.2516 42.032 65.6656 41.618 65.9776 41.066C66.3016 40.514 66.4636 39.842 66.4636 39.05C66.4636 38.258 66.3076 37.586 65.9956 37.034C65.6836 36.482 65.2756 36.074 64.7716 35.81C64.2676 35.534 63.7216 35.396 63.1336 35.396C62.5336 35.396 61.9816 35.534 61.4776 35.81C60.9856 36.074 60.5896 36.482 60.2896 37.034C59.9896 37.586 59.8396 38.258 59.8396 39.05C59.8396 39.854 59.9836 40.532 60.2716 41.084C60.5716 41.636 60.9676 42.05 61.4596 42.326C61.9516 42.59 62.4916 42.722 63.0796 42.722ZM71.7313 35.738C72.0193 35.174 72.4273 34.736 72.9553 34.424C73.4953 34.112 74.1493 33.956 74.9173 33.956V35.648H74.4853C72.6493 35.648 71.7313 36.644 71.7313 38.636V44H70.0933V34.136H71.7313V35.738ZM75.9981 39.032C75.9981 38.024 76.2021 37.142 76.6101 36.386C77.0181 35.618 77.5761 35.024 78.2841 34.604C79.0041 34.184 79.8021 33.974 80.6781 33.974C81.5421 33.974 82.2921 34.16 82.9281 34.532C83.5641 34.904 84.0381 35.372 84.3501 35.936V34.136H86.0061V44H84.3501V42.164C84.0261 42.74 83.5401 43.22 82.8921 43.604C82.2561 43.976 81.5121 44.162 80.6601 44.162C79.7841 44.162 78.9921 43.946 78.2841 43.514C77.5761 43.082 77.0181 42.476 76.6101 41.696C76.2021 40.916 75.9981 40.028 75.9981 39.032ZM84.3501 39.05C84.3501 38.306 84.2001 37.658 83.9001 37.106C83.6001 36.554 83.1921 36.134 82.6761 35.846C82.1721 35.546 81.6141 35.396 81.0021 35.396C80.3901 35.396 79.8321 35.54 79.3281 35.828C78.8241 36.116 78.4221 36.536 78.1221 37.088C77.8221 37.64 77.6721 38.288 77.6721 39.032C77.6721 39.788 77.8221 40.448 78.1221 41.012C78.4221 41.564 78.8241 41.99 79.3281 42.29C79.8321 42.578 80.3901 42.722 81.0021 42.722C81.6141 42.722 82.1721 42.578 82.6761 42.29C83.1921 41.99 83.6001 41.564 83.9001 41.012C84.2001 40.448 84.3501 39.794 84.3501 39.05ZM87.9642 39.032C87.9642 38.024 88.1682 37.142 88.5762 36.386C88.9842 35.618 89.5422 35.024 90.2502 34.604C90.9702 34.184 91.7742 33.974 92.6622 33.974C93.4302 33.974 94.1442 34.154 94.8042 34.514C95.4642 34.862 95.9682 35.324 96.3162 35.9V30.68H97.9722V44H96.3162V42.146C95.9922 42.734 95.5122 43.22 94.8762 43.604C94.2402 43.976 93.4962 44.162 92.6442 44.162C91.7682 44.162 90.9702 43.946 90.2502 43.514C89.5422 43.082 88.9842 42.476 88.5762 41.696C88.1682 40.916 87.9642 40.028 87.9642 39.032ZM96.3162 39.05C96.3162 38.306 96.1662 37.658 95.8662 37.106C95.5662 36.554 95.1582 36.134 94.6422 35.846C94.1382 35.546 93.5802 35.396 92.9682 35.396C92.3562 35.396 91.7982 35.54 91.2942 35.828C90.7902 36.116 90.3882 36.536 90.0882 37.088C89.7882 37.64 89.6382 38.288 89.6382 39.032C89.6382 39.788 89.7882 40.448 90.0882 41.012C90.3882 41.564 90.7902 41.99 91.2942 42.29C91.7982 42.578 92.3562 42.722 92.9682 42.722C93.5802 42.722 94.1382 42.578 94.6422 42.29C95.1582 41.99 95.5662 41.564 95.8662 41.012C96.1662 40.448 96.3162 39.794 96.3162 39.05ZM104.844 44.162C103.92 44.162 103.08 43.952 102.324 43.532C101.58 43.112 100.992 42.518 100.56 41.75C100.14 40.97 99.9302 40.07 99.9302 39.05C99.9302 38.042 100.146 37.154 100.578 36.386C101.022 35.606 101.622 35.012 102.378 34.604C103.134 34.184 103.98 33.974 104.916 33.974C105.852 33.974 106.698 34.184 107.454 34.604C108.21 35.012 108.804 35.6 109.236 36.368C109.68 37.136 109.902 38.03 109.902 39.05C109.902 40.07 109.674 40.97 109.218 41.75C108.774 42.518 108.168 43.112 107.4 43.532C106.632 43.952 105.78 44.162 104.844 44.162ZM104.844 42.722C105.432 42.722 105.984 42.584 106.5 42.308C107.016 42.032 107.43 41.618 107.742 41.066C108.066 40.514 108.228 39.842 108.228 39.05C108.228 38.258 108.072 37.586 107.76 37.034C107.448 36.482 107.04 36.074 106.536 35.81C106.032 35.534 105.486 35.396 104.898 35.396C104.298 35.396 103.746 35.534 103.242 35.81C102.75 36.074 102.354 36.482 102.054 37.034C101.754 37.586 101.604 38.258 101.604 39.05C101.604 39.854 101.748 40.532 102.036 41.084C102.336 41.636 102.732 42.05 103.224 42.326C103.716 42.59 104.256 42.722 104.844 42.722ZM118.097 32.786V36.98H122.669V38.33H118.097V42.65H123.209V44H116.459V31.436H123.209V32.786H118.097ZM130.637 44L128.297 40.328L126.047 44H124.337L127.523 39.104L124.337 34.136H126.191L128.531 37.79L130.763 34.136H132.473L129.305 39.014L132.491 44H130.637ZM133.293 39.05C133.293 38.03 133.497 37.142 133.905 36.386C134.313 35.618 134.877 35.024 135.597 34.604C136.329 34.184 137.163 33.974 138.099 33.974C139.311 33.974 140.307 34.268 141.087 34.856C141.879 35.444 142.401 36.26 142.653 37.304H140.889C140.721 36.704 140.391 36.23 139.899 35.882C139.419 35.534 138.819 35.36 138.099 35.36C137.163 35.36 136.407 35.684 135.831 36.332C135.255 36.968 134.967 37.874 134.967 39.05C134.967 40.238 135.255 41.156 135.831 41.804C136.407 42.452 137.163 42.776 138.099 42.776C138.819 42.776 139.419 42.608 139.899 42.272C140.379 41.936 140.709 41.456 140.889 40.832H142.653C142.389 41.84 141.861 42.65 141.069 43.262C140.277 43.862 139.287 44.162 138.099 44.162C137.163 44.162 136.329 43.952 135.597 43.532C134.877 43.112 134.313 42.518 133.905 41.75C133.497 40.982 133.293 40.082 133.293 39.05ZM149.536 33.956C150.28 33.956 150.952 34.118 151.552 34.442C152.152 34.754 152.62 35.228 152.956 35.864C153.304 36.5 153.478 37.274 153.478 38.186V44H151.858V38.42C151.858 37.436 151.612 36.686 151.12 36.17C150.628 35.642 149.956 35.378 149.104 35.378C148.24 35.378 147.55 35.648 147.034 36.188C146.53 36.728 146.278 37.514 146.278 38.546V44H144.64V30.68H146.278V35.54C146.602 35.036 147.046 34.646 147.61 34.37C148.186 34.094 148.828 33.956 149.536 33.956ZM155.344 39.032C155.344 38.024 155.548 37.142 155.956 36.386C156.364 35.618 156.922 35.024 157.63 34.604C158.35 34.184 159.148 33.974 160.024 33.974C160.888 33.974 161.638 34.16 162.274 34.532C162.91 34.904 163.384 35.372 163.696 35.936V34.136H165.352V44H163.696V42.164C163.372 42.74 162.886 43.22 162.238 43.604C161.602 43.976 160.858 44.162 160.006 44.162C159.13 44.162 158.338 43.946 157.63 43.514C156.922 43.082 156.364 42.476 155.956 41.696C155.548 40.916 155.344 40.028 155.344 39.032ZM163.696 39.05C163.696 38.306 163.546 37.658 163.246 37.106C162.946 36.554 162.538 36.134 162.022 35.846C161.518 35.546 160.96 35.396 160.348 35.396C159.736 35.396 159.178 35.54 158.674 35.828C158.17 36.116 157.768 36.536 157.468 37.088C157.168 37.64 157.018 38.288 157.018 39.032C157.018 39.788 157.168 40.448 157.468 41.012C157.768 41.564 158.17 41.99 158.674 42.29C159.178 42.578 159.736 42.722 160.348 42.722C160.96 42.722 161.518 42.578 162.022 42.29C162.538 41.99 162.946 41.564 163.246 41.012C163.546 40.448 163.696 39.794 163.696 39.05ZM172.728 33.956C173.928 33.956 174.9 34.322 175.644 35.054C176.388 35.774 176.76 36.818 176.76 38.186V44H175.14V38.42C175.14 37.436 174.894 36.686 174.402 36.17C173.91 35.642 173.238 35.378 172.386 35.378C171.522 35.378 170.832 35.648 170.316 36.188C169.812 36.728 169.56 37.514 169.56 38.546V44H167.922V34.136H169.56V35.54C169.884 35.036 170.322 34.646 170.874 34.37C171.438 34.094 172.056 33.956 172.728 33.956ZM183.306 33.974C184.158 33.974 184.902 34.16 185.538 34.532C186.186 34.904 186.666 35.372 186.978 35.936V34.136H188.634V44.216C188.634 45.116 188.442 45.914 188.058 46.61C187.674 47.318 187.122 47.87 186.402 48.266C185.694 48.662 184.866 48.86 183.918 48.86C182.622 48.86 181.542 48.554 180.678 47.942C179.814 47.33 179.304 46.496 179.148 45.44H180.768C180.948 46.04 181.32 46.52 181.884 46.88C182.448 47.252 183.126 47.438 183.918 47.438C184.818 47.438 185.55 47.156 186.114 46.592C186.69 46.028 186.978 45.236 186.978 44.216V42.146C186.654 42.722 186.174 43.202 185.538 43.586C184.902 43.97 184.158 44.162 183.306 44.162C182.43 44.162 181.632 43.946 180.912 43.514C180.204 43.082 179.646 42.476 179.238 41.696C178.83 40.916 178.626 40.028 178.626 39.032C178.626 38.024 178.83 37.142 179.238 36.386C179.646 35.618 180.204 35.024 180.912 34.604C181.632 34.184 182.43 33.974 183.306 33.974ZM186.978 39.05C186.978 38.306 186.828 37.658 186.528 37.106C186.228 36.554 185.82 36.134 185.304 35.846C184.8 35.546 184.242 35.396 183.63 35.396C183.018 35.396 182.46 35.54 181.956 35.828C181.452 36.116 181.05 36.536 180.75 37.088C180.45 37.64 180.3 38.288 180.3 39.032C180.3 39.788 180.45 40.448 180.75 41.012C181.05 41.564 181.452 41.99 181.956 42.29C182.46 42.578 183.018 42.722 183.63 42.722C184.242 42.722 184.8 42.578 185.304 42.29C185.82 41.99 186.228 41.564 186.528 41.012C186.828 40.448 186.978 39.794 186.978 39.05ZM200.204 38.69C200.204 39.002 200.186 39.332 200.15 39.68H192.266C192.326 40.652 192.656 41.414 193.256 41.966C193.868 42.506 194.606 42.776 195.47 42.776C196.178 42.776 196.766 42.614 197.234 42.29C197.714 41.954 198.05 41.51 198.242 40.958H200.006C199.742 41.906 199.214 42.68 198.422 43.28C197.63 43.868 196.646 44.162 195.47 44.162C194.534 44.162 193.694 43.952 192.95 43.532C192.218 43.112 191.642 42.518 191.222 41.75C190.802 40.97 190.592 40.07 190.592 39.05C190.592 38.03 190.796 37.136 191.204 36.368C191.612 35.6 192.182 35.012 192.914 34.604C193.658 34.184 194.51 33.974 195.47 33.974C196.406 33.974 197.234 34.178 197.954 34.586C198.674 34.994 199.226 35.558 199.61 36.278C200.006 36.986 200.204 37.79 200.204 38.69ZM198.512 38.348C198.512 37.724 198.374 37.19 198.098 36.746C197.822 36.29 197.444 35.948 196.964 35.72C196.496 35.48 195.974 35.36 195.398 35.36C194.57 35.36 193.862 35.624 193.274 36.152C192.698 36.68 192.368 37.412 192.284 38.348H198.512Z" fill="white"/>
<g filter="url(#filter0_d_1009_173)">
<path d="M35.064 58.44V81H28.792V58.44H35.064ZM48.8438 58.44C51.2118 58.44 53.2811 58.92 55.0518 59.88C56.8438 60.8187 58.2198 62.1413 59.1798 63.848C60.1398 65.5547 60.6198 67.5067 60.6198 69.704C60.6198 71.88 60.1291 73.8213 59.1477 75.528C58.1878 77.2347 56.8118 78.5787 55.0197 79.56C53.2491 80.52 51.1904 81 48.8438 81H39.9157V58.44H48.8438ZM48.3638 75.464C50.1984 75.464 51.6384 74.9627 52.6838 73.96C53.7291 72.9573 54.2517 71.5387 54.2517 69.704C54.2517 67.848 53.7291 66.4187 52.6838 65.416C51.6384 64.392 50.1984 63.88 48.3638 63.88H46.1877V75.464H48.3638ZM75.543 81.224C73.431 81.224 71.4897 80.7333 69.719 79.752C67.9483 78.7493 66.5403 77.3733 65.495 75.624C64.471 73.8533 63.959 71.8587 63.959 69.64C63.959 67.4213 64.471 65.4373 65.495 63.688C66.5403 61.9173 67.9483 60.5413 69.719 59.56C71.4897 58.5787 73.431 58.088 75.543 58.088C77.6763 58.088 79.6177 58.5787 81.367 59.56C83.1377 60.5413 84.535 61.9173 85.559 63.688C86.583 65.4373 87.095 67.4213 87.095 69.64C87.095 71.8587 86.583 73.8533 85.559 75.624C84.535 77.3733 83.1377 78.7493 81.367 79.752C79.5963 80.7333 77.655 81.224 75.543 81.224ZM75.543 75.4C77.143 75.4 78.4017 74.8773 79.319 73.832C80.2577 72.7867 80.727 71.3893 80.727 69.64C80.727 67.848 80.2577 66.44 79.319 65.416C78.4017 64.3707 77.143 63.848 75.543 63.848C73.9217 63.848 72.6523 64.3707 71.735 65.416C70.8177 66.44 70.359 67.848 70.359 69.64C70.359 71.4107 70.8177 72.8187 71.735 73.864C72.6523 74.888 73.9217 75.4 75.543 75.4ZM116.424 65.96C116.424 67.3253 116.104 68.5733 115.464 69.704C114.845 70.8133 113.896 71.7093 112.616 72.392C111.357 73.0533 109.81 73.384 107.976 73.384H104.872V81H98.5995V58.44H107.976C109.789 58.44 111.325 58.76 112.584 59.4C113.864 60.04 114.824 60.9253 115.464 62.056C116.104 63.1867 116.424 64.488 116.424 65.96ZM107.368 68.392C109.138 68.392 110.024 67.5813 110.024 65.96C110.024 64.3173 109.138 63.496 107.368 63.496H104.872V68.392H107.368ZM119.199 72.008C119.199 70.152 119.53 68.5307 120.191 67.144C120.874 65.7573 121.791 64.6907 122.943 63.944C124.117 63.1973 125.418 62.824 126.847 62.824C128.085 62.824 129.151 63.0693 130.047 63.56C130.943 64.0507 131.637 64.712 132.127 65.544V63.048H138.399V81H132.127V78.504C131.637 79.336 130.933 79.9973 130.015 80.488C129.119 80.9787 128.063 81.224 126.847 81.224C125.418 81.224 124.117 80.8507 122.943 80.104C121.791 79.3573 120.874 78.2907 120.191 76.904C119.53 75.496 119.199 73.864 119.199 72.008ZM132.127 72.008C132.127 70.856 131.807 69.9493 131.167 69.288C130.549 68.6267 129.781 68.296 128.863 68.296C127.925 68.296 127.146 68.6267 126.527 69.288C125.909 69.928 125.599 70.8347 125.599 72.008C125.599 73.16 125.909 74.0773 126.527 74.76C127.146 75.4213 127.925 75.752 128.863 75.752C129.781 75.752 130.549 75.4213 131.167 74.76C131.807 74.0987 132.127 73.1813 132.127 72.008ZM149.525 66.216C150.229 65.192 151.083 64.3813 152.085 63.784C153.088 63.1867 154.165 62.888 155.317 62.888V69.576H153.557C152.192 69.576 151.179 69.8427 150.517 70.376C149.856 70.9093 149.525 71.8373 149.525 73.16V81H143.253V63.048H149.525V66.216ZM169.438 75.656V81H166.718C162.131 81 159.838 78.728 159.838 74.184V68.264H157.63V63.048H159.838V58.696H166.142V63.048H169.406V68.264H166.142V74.28C166.142 74.7707 166.248 75.1227 166.462 75.336C166.696 75.5493 167.08 75.656 167.614 75.656H169.438ZM176.763 61.384C175.653 61.384 174.757 61.0853 174.075 60.488C173.413 59.8693 173.083 59.1013 173.083 58.184C173.083 57.2453 173.413 56.4667 174.075 55.848C174.757 55.2293 175.653 54.92 176.763 54.92C177.851 54.92 178.725 55.2293 179.387 55.848C180.069 56.4667 180.411 57.2453 180.411 58.184C180.411 59.1013 180.069 59.8693 179.387 60.488C178.725 61.0853 177.851 61.384 176.763 61.384ZM179.867 63.048V81H173.595V63.048H179.867ZM183.694 72.008C183.694 70.152 184.078 68.5307 184.846 67.144C185.614 65.7573 186.681 64.6907 188.046 63.944C189.433 63.1973 191.012 62.824 192.782 62.824C195.065 62.824 196.985 63.4533 198.542 64.712C200.1 65.9493 201.102 67.688 201.55 69.928H194.894C194.51 68.7547 193.764 68.168 192.654 68.168C191.865 68.168 191.236 68.4987 190.766 69.16C190.318 69.8 190.094 70.7493 190.094 72.008C190.094 73.2667 190.318 74.2267 190.766 74.888C191.236 75.5493 191.865 75.88 192.654 75.88C193.785 75.88 194.532 75.2933 194.894 74.12H201.55C201.102 76.3387 200.1 78.0773 198.542 79.336C196.985 80.5947 195.065 81.224 192.782 81.224C191.012 81.224 189.433 80.8507 188.046 80.104C186.681 79.3573 185.614 78.2907 184.846 76.904C184.078 75.5173 183.694 73.8853 183.694 72.008ZM208.604 61.384C207.494 61.384 206.598 61.0853 205.916 60.488C205.254 59.8693 204.924 59.1013 204.924 58.184C204.924 57.2453 205.254 56.4667 205.916 55.848C206.598 55.2293 207.494 54.92 208.604 54.92C209.692 54.92 210.566 55.2293 211.228 55.848C211.91 56.4667 212.252 57.2453 212.252 58.184C212.252 59.1013 211.91 59.8693 211.228 60.488C210.566 61.0853 209.692 61.384 208.604 61.384ZM211.708 63.048V81H205.436V63.048H211.708ZM222.832 65.544C223.322 64.712 224.016 64.0507 224.912 63.56C225.808 63.0693 226.864 62.824 228.08 62.824C229.509 62.824 230.8 63.1973 231.952 63.944C233.125 64.6907 234.042 65.7573 234.704 67.144C235.386 68.5307 235.728 70.152 235.728 72.008C235.728 73.864 235.386 75.496 234.704 76.904C234.042 78.2907 233.125 79.3573 231.952 80.104C230.8 80.8507 229.509 81.224 228.08 81.224C226.864 81.224 225.808 80.9787 224.912 80.488C224.037 79.9973 223.344 79.336 222.832 78.504V89.576H216.56V63.048H222.832V65.544ZM229.36 72.008C229.36 70.8347 229.04 69.928 228.4 69.288C227.781 68.6267 227.013 68.296 226.096 68.296C225.178 68.296 224.4 68.6267 223.76 69.288C223.141 69.9493 222.832 70.856 222.832 72.008C222.832 73.1813 223.141 74.0987 223.76 74.76C224.4 75.4213 225.178 75.752 226.096 75.752C227.013 75.752 227.781 75.4213 228.4 74.76C229.04 74.0773 229.36 73.16 229.36 72.008ZM238.566 72.008C238.566 70.152 238.896 68.5307 239.558 67.144C240.24 65.7573 241.158 64.6907 242.31 63.944C243.483 63.1973 244.784 62.824 246.214 62.824C247.451 62.824 248.518 63.0693 249.414 63.56C250.31 64.0507 251.003 64.712 251.494 65.544V63.048H257.766V81H251.494V78.504C251.003 79.336 250.299 79.9973 249.382 80.488C248.486 80.9787 247.43 81.224 246.214 81.224C244.784 81.224 243.483 80.8507 242.31 80.104C241.158 79.3573 240.24 78.2907 239.558 76.904C238.896 75.496 238.566 73.864 238.566 72.008ZM251.494 72.008C251.494 70.856 251.174 69.9493 250.534 69.288C249.915 68.6267 249.147 68.296 248.23 68.296C247.291 68.296 246.512 68.6267 245.894 69.288C245.275 69.928 244.966 70.8347 244.966 72.008C244.966 73.16 245.275 74.0773 245.894 74.76C246.512 75.4213 247.291 75.752 248.23 75.752C249.147 75.752 249.915 75.4213 250.534 74.76C251.174 74.0987 251.494 73.1813 251.494 72.008ZM273.212 75.656V81H270.491C265.905 81 263.611 78.728 263.611 74.184V68.264H261.403V63.048H263.611V58.696H269.915V63.048H273.179V68.264H269.915V74.28C269.915 74.7707 270.022 75.1227 270.235 75.336C270.47 75.5493 270.854 75.656 271.387 75.656H273.212ZM280.536 61.384C279.427 61.384 278.531 61.0853 277.848 60.488C277.187 59.8693 276.856 59.1013 276.856 58.184C276.856 57.2453 277.187 56.4667 277.848 55.848C278.531 55.2293 279.427 54.92 280.536 54.92C281.624 54.92 282.499 55.2293 283.16 55.848C283.843 56.4667 284.184 57.2453 284.184 58.184C284.184 59.1013 283.843 59.8693 283.16 60.488C282.499 61.0853 281.624 61.384 280.536 61.384ZM283.64 63.048V81H277.368V63.048H283.64ZM296.844 81.224C295.052 81.224 293.441 80.8507 292.012 80.104C290.604 79.3573 289.495 78.2907 288.684 76.904C287.873 75.5173 287.468 73.8853 287.468 72.008C287.468 70.152 287.873 68.5307 288.684 67.144C289.516 65.7573 290.636 64.6907 292.044 63.944C293.473 63.1973 295.084 62.824 296.876 62.824C298.668 62.824 300.268 63.1973 301.676 63.944C303.105 64.6907 304.225 65.7573 305.036 67.144C305.868 68.5307 306.284 70.152 306.284 72.008C306.284 73.864 305.868 75.496 305.036 76.904C304.225 78.2907 303.105 79.3573 301.676 80.104C300.247 80.8507 298.636 81.224 296.844 81.224ZM296.844 75.784C297.719 75.784 298.444 75.464 299.02 74.824C299.617 74.1627 299.916 73.224 299.916 72.008C299.916 70.792 299.617 69.864 299.02 69.224C298.444 68.584 297.729 68.264 296.876 68.264C296.023 68.264 295.308 68.584 294.732 69.224C294.156 69.864 293.868 70.792 293.868 72.008C293.868 73.2453 294.145 74.184 294.7 74.824C295.255 75.464 295.969 75.784 296.844 75.784ZM321.86 62.888C323.929 62.888 325.572 63.5813 326.788 64.968C328.004 66.3333 328.612 68.1893 328.612 70.536V81H322.34V71.368C322.34 70.344 322.073 69.544 321.54 68.968C321.006 68.3707 320.292 68.072 319.396 68.072C318.457 68.072 317.721 68.3707 317.188 68.968C316.654 69.544 316.388 70.344 316.388 71.368V81H310.116V63.048H316.388V65.608C316.942 64.7973 317.689 64.1467 318.628 63.656C319.566 63.144 320.644 62.888 321.86 62.888ZM347.01 63.464V67.144H354.21V71.912H347.01V75.976H355.17V81H340.738V58.44H355.17V63.464H347.01ZM368.158 75.08L371.518 63.048H378.206L372.03 81H364.222L358.046 63.048H364.734L368.158 75.08ZM398.763 71.816C398.763 72.3067 398.731 72.7973 398.667 73.288H386.795C386.859 74.2693 387.125 75.0053 387.595 75.496C388.085 75.9653 388.704 76.2 389.451 76.2C390.496 76.2 391.243 75.7307 391.691 74.792H398.379C398.101 76.0293 397.557 77.1387 396.747 78.12C395.957 79.08 394.955 79.8373 393.739 80.392C392.523 80.9467 391.179 81.224 389.707 81.224C387.936 81.224 386.357 80.8507 384.971 80.104C383.605 79.3573 382.528 78.2907 381.739 76.904C380.971 75.5173 380.587 73.8853 380.587 72.008C380.587 70.1307 380.971 68.5093 381.739 67.144C382.507 65.7573 383.573 64.6907 384.939 63.944C386.325 63.1973 387.915 62.824 389.707 62.824C391.477 62.824 393.045 63.1867 394.411 63.912C395.776 64.6373 396.843 65.6827 397.611 67.048C398.379 68.392 398.763 69.9813 398.763 71.816ZM392.363 70.248C392.363 69.48 392.107 68.8827 391.595 68.456C391.083 68.008 390.443 67.784 389.675 67.784C388.907 67.784 388.277 67.9973 387.787 68.424C387.296 68.8293 386.976 69.4373 386.827 70.248H392.363ZM414.354 62.888C416.423 62.888 418.066 63.5813 419.282 64.968C420.498 66.3333 421.106 68.1893 421.106 70.536V81H414.834V71.368C414.834 70.344 414.567 69.544 414.034 68.968C413.5 68.3707 412.786 68.072 411.89 68.072C410.951 68.072 410.215 68.3707 409.682 68.968C409.148 69.544 408.882 70.344 408.882 71.368V81H402.61V63.048H408.882V65.608C409.436 64.7973 410.183 64.1467 411.122 63.656C412.06 63.144 413.138 62.888 414.354 62.888ZM436.419 75.656V81H433.699C429.112 81 426.819 78.728 426.819 74.184V68.264H424.611V63.048H426.819V58.696H433.123V63.048H436.387V68.264H433.123V74.28C433.123 74.7707 433.23 75.1227 433.443 75.336C433.678 75.5493 434.062 75.656 434.595 75.656H436.419ZM448.96 57.288L448.224 72.552H442.88L442.144 57.288H448.96ZM445.568 81.256C444.458 81.256 443.562 80.9573 442.88 80.36C442.218 79.7413 441.888 78.9627 441.888 78.024C441.888 77.0853 442.218 76.3067 442.88 75.688C443.562 75.0693 444.458 74.76 445.568 74.76C446.656 74.76 447.53 75.0693 448.192 75.688C448.874 76.3067 449.216 77.0853 449.216 78.024C449.216 78.9413 448.874 79.7093 448.192 80.328C447.53 80.9467 446.656 81.256 445.568 81.256Z" fill="white"/>
</g>
</g>
<defs>
<filter id="filter0_d_1009_173" x="22.793" y="48.92" width="436.422" height="50.656" filterUnits="userSpaceOnUse" color-interpolation-filters="sRGB">
<feFlood flood-opacity="0" result="BackgroundImageFix"/>
<feColorMatrix in="SourceAlpha" type="matrix" values="0 0 0 0 0 0 0 0 0 0 0 0 0 0 0 0 0 0 127 0" result="hardAlpha"/>
<feOffset dx="2" dy="2"/>
<feGaussianBlur stdDeviation="4"/>
<feComposite in2="hardAlpha" operator="out"/>
<feColorMatrix type="matrix" values="0 0 0 0 0.0467882 0 0 0 0 0.0575163 0 0 0 0 0.229167 0 0 0 0.48 0"/>
<feBlend mode="normal" in2="BackgroundImageFix" result="effect1_dropShadow_1009_173"/>
<feBlend mode="normal" in="SourceGraphic" in2="effect1_dropShadow_1009_173" result="shape"/>
</filter>
<linearGradient id="paint0_linear_1009_173" x1="300" y1="0" x2="300" y2="110" gradientUnits="userSpaceOnUse">
<stop stop-color="#00D2FC"/>
<stop offset="1" stop-color="#0E3DE4"/>
</linearGradient>
<linearGradient id="paint1_linear_1009_173" x1="447.469" y1="61.8169" x2="571.485" y2="246.848" gradientUnits="userSpaceOnUse">
<stop stop-color="#D375FF"/>
<stop offset="1" stop-color="#58009C"/>
</linearGradient>
<linearGradient id="paint2_linear_1009_173" x1="450.736" y1="59.6295" x2="574.748" y2="244.66" gradientUnits="userSpaceOnUse">
<stop stop-color="#D375FF"/>
<stop offset="1" stop-color="#58009C"/>
</linearGradient>
<linearGradient id="paint3_linear_1009_173" x1="453.999" y1="57.442" x2="578.011" y2="242.473" gradientUnits="userSpaceOnUse">
<stop stop-color="#D375FF"/>
<stop offset="1" stop-color="#58009C"/>
</linearGradient>
<linearGradient id="paint4_linear_1009_173" x1="457.262" y1="55.2546" x2="581.278" y2="240.286" gradientUnits="userSpaceOnUse">
<stop stop-color="#D375FF"/>
<stop offset="1" stop-color="#58009C"/>
</linearGradient>
<linearGradient id="paint5_linear_1009_173" x1="460.527" y1="53.0672" x2="584.539" y2="238.094" gradientUnits="userSpaceOnUse">
<stop stop-color="#D375FF"/>
<stop offset="1" stop-color="#58009C"/>
</linearGradient>
<linearGradient id="paint6_linear_1009_173" x1="501.371" y1="-27.9113" x2="620.27" y2="126.603" gradientUnits="userSpaceOnUse">
<stop stop-color="#D375FF"/>
<stop offset="1" stop-color="#58009C"/>
</linearGradient>
<linearGradient id="paint7_linear_1009_173" x1="488.457" y1="-17.9728" x2="607.355" y2="136.538" gradientUnits="userSpaceOnUse">
<stop stop-color="#D375FF"/>
<stop offset="1" stop-color="#58009C"/>
</linearGradient>
<linearGradient id="paint8_linear_1009_173" x1="475.538" y1="-8.03029" x2="594.437" y2="146.48" gradientUnits="userSpaceOnUse">
<stop stop-color="#D375FF"/>
<stop offset="1" stop-color="#58009C"/>
</linearGradient>
<linearGradient id="paint9_linear_1009_173" x1="462.628" y1="1.90429" x2="581.526" y2="156.419" gradientUnits="userSpaceOnUse">
<stop stop-color="#D375FF"/>
<stop offset="1" stop-color="#58009C"/>
</linearGradient>
<linearGradient id="paint10_linear_1009_173" x1="449.713" y1="11.8428" x2="568.612" y2="166.353" gradientUnits="userSpaceOnUse">
<stop stop-color="#D375FF"/>
<stop offset="1" stop-color="#58009C"/>
</linearGradient>
<linearGradient id="paint11_linear_1009_173" x1="488.504" y1="86.9129" x2="567.694" y2="184.5" gradientUnits="userSpaceOnUse">
<stop stop-color="#D375FF"/>
<stop offset="1" stop-color="#58009C"/>
</linearGradient>
<linearGradient id="paint12_linear_1009_173" x1="487.207" y1="86.6236" x2="606.309" y2="224.158" gradientUnits="userSpaceOnUse">
<stop stop-color="#D375FF"/>
<stop offset="1" stop-color="#8F00FE"/>
</linearGradient>
<linearGradient id="paint13_linear_1009_173" x1="487.207" y1="86.6236" x2="606.308" y2="224.158" gradientUnits="userSpaceOnUse">
<stop stop-color="#D375FF"/>
<stop offset="1" stop-color="#8F00FE"/>
</linearGradient>
<linearGradient id="paint14_linear_1009_173" x1="491.295" y1="84.6501" x2="570.485" y2="182.237" gradientUnits="userSpaceOnUse">
<stop stop-color="#D375FF"/>
<stop offset="1" stop-color="#58009C"/>
</linearGradient>
<linearGradient id="paint15_linear_1009_173" x1="494.085" y1="82.3835" x2="573.279" y2="179.971" gradientUnits="userSpaceOnUse">
<stop stop-color="#D375FF"/>
<stop offset="1" stop-color="#58009C"/>
</linearGradient>
<linearGradient id="paint16_linear_1009_173" x1="496.881" y1="80.1168" x2="576.071" y2="177.704" gradientUnits="userSpaceOnUse">
<stop stop-color="#D375FF"/>
<stop offset="1" stop-color="#58009C"/>
</linearGradient>
<linearGradient id="paint17_linear_1009_173" x1="487.206" y1="86.6236" x2="606.308" y2="224.158" gradientUnits="userSpaceOnUse">
<stop stop-color="#D375FF"/>
<stop offset="1" stop-color="#8F00FE"/>
</linearGradient>
<linearGradient id="paint18_linear_1009_173" x1="487.206" y1="86.6236" x2="606.307" y2="224.158" gradientUnits="userSpaceOnUse">
<stop stop-color="#D375FF"/>
<stop offset="1" stop-color="#8F00FE"/>
</linearGradient>
<linearGradient id="paint19_linear_1009_173" x1="487.202" y1="86.6236" x2="606.307" y2="224.162" gradientUnits="userSpaceOnUse">
<stop stop-color="#D375FF"/>
<stop offset="1" stop-color="#8F00FE"/>
</linearGradient>
<linearGradient id="paint20_linear_1009_173" x1="499.672" y1="77.8501" x2="578.862" y2="175.437" gradientUnits="userSpaceOnUse">
<stop stop-color="#D375FF"/>
<stop offset="1" stop-color="#58009C"/>
</linearGradient>
<radialGradient id="paint21_radial_1009_173" cx="0" cy="0" r="1" gradientUnits="userSpaceOnUse" gradientTransform="translate(469.187 45.3398) scale(189.096 188.804)">
<stop stop-color="white"/>
<stop offset="0.15" stop-color="white" stop-opacity="0.83"/>
<stop offset="0.58" stop-color="white" stop-opacity="0.39"/>
<stop offset="0.87" stop-color="white" stop-opacity="0.11"/>
<stop offset="1" stop-color="white" stop-opacity="0"/>
</radialGradient>
<linearGradient id="paint22_linear_1009_173" x1="345" y1="-36" x2="345" y2="99" gradientUnits="userSpaceOnUse">
<stop offset="0.327247" stop-color="white"/>
<stop offset="1" stop-color="#0D47E6" stop-opacity="0.25"/>
</linearGradient>
<clipPath id="clip0_1009_173">
<rect width="600" height="110" rx="10" fill="white"/>
</clipPath>
<clipPath id="clip1_1009_173">
<rect width="259" height="151" fill="white" transform="translate(385 50)"/>
</clipPath>
</defs>
</svg>
