<svg width="35" height="26" viewBox="0 0 35 26" fill="none" xmlns="http://www.w3.org/2000/svg">
<g clip-path="url(#clip0_310_638)">
<path d="M3.30664 0.65625C1.86013 0.65625 0.688049 1.82764 0.688049 3.27329V22.7524C0.688049 24.1981 1.86013 25.3694 3.30664 25.3694H32.3814C33.8279 25.3694 35 24.1981 35 22.7524V3.27329C35 1.82764 33.8279 0.65625 32.3814 0.65625H3.30664ZM13.0405 22.6247H3.4271V19.8789H10.2941V17.1342H6.17452V14.3894H13.0405V22.6247ZM32.2526 22.6247H15.7879V19.8789H29.5062V17.1342H25.4275V14.3894H32.2526V22.6247ZM22.6392 14.3894V17.1342H15.8141V14.381H18.5615V14.3894H22.6392ZM22.6476 3.401H29.5135V6.14574H25.3939V8.89049H32.2609V11.6363H22.6476V3.401ZM13.0489 3.401H17.1265V3.39262H19.874V6.14574H13.0489V3.401ZM3.43548 3.401H10.2606V6.14574H6.18186V8.89049H19.9001V11.6363H3.43548V3.401Z" fill="url(#paint0_linear_310_638)"/>
</g>
<defs>
<linearGradient id="paint0_linear_310_638" x1="17.844" y1="0.65625" x2="17.844" y2="25.3694" gradientUnits="userSpaceOnUse">
<stop stop-color="#FFD100"/>
<stop offset="1" stop-color="#F89542"/>
</linearGradient>
<clipPath id="clip0_310_638">
<rect width="34.3119" height="24.7132" fill="white" transform="translate(0.688049 0.65625)"/>
</clipPath>
</defs>
</svg>
