<svg width="206" height="38" viewBox="0 0 206 38" fill="none" xmlns="http://www.w3.org/2000/svg">
<g opacity="0.5">
<g clip-path="url(#clip0_2321_3639)">
<path d="M4.03566 0C1.80636 0 0 1.80117 0 4.02406V33.9759C0 36.1988 1.80636 38 4.03566 38H48.8443C51.0736 38 52.88 36.1988 52.88 33.9759V4.02406C52.88 1.80117 51.0736 0 48.8443 0H4.03566ZM19.037 33.7796H4.22129V29.5575H14.8044V25.3371H8.4555V21.1167H19.037V33.7796ZM48.6458 33.7796H23.2712V29.5575H44.4132V25.3371H38.1273V21.1167H48.6458V33.7796ZM33.8301 21.1167V25.3371H23.3116V21.1038H27.5458V21.1167H33.8301ZM33.843 4.22043H44.4245V8.44087H38.0756V12.6613H48.6587V16.8833H33.843V4.22043ZM19.0499 4.22043H25.3342V4.20756H29.5684V8.44087H19.0499V4.22043ZM4.23421 4.22043H14.7527V8.44087H8.4668V12.6613H29.6088V16.8833H4.23421V4.22043Z" fill="#EEF2F9"/>
</g>
<path d="M88.707 23.0911V17.9772H68.9174V14.0828H79.8364V9.2443H68.9174V5.11387H80.9796V6.00242e-07H63.4775L63.4775 23.0911H88.707Z" fill="#EEF2F9"/>
<path d="M88.707 23.0911V6.00242e-07H83.4642V23.0911H88.707Z" fill="#EEF2F9"/>
<path d="M110.245 6.00242e-07H105.081V5.6646C104.529 4.64182 102.953 3.26501 99.602 3.26501C94.1228 3.26501 90.2991 7.71014 90.2991 13.3747C90.2991 19.236 94.241 23.5631 99.7597 23.5631C102.361 23.5631 104.332 22.383 105.2 20.8489C105.2 21.7536 105.318 22.6977 105.397 23.0911H110.403C110.324 22.3043 110.245 20.8882 110.245 19.5901V6.00242e-07ZM95.5813 13.3747C95.5813 9.91304 97.7099 7.94617 100.39 7.94617C103.071 7.94617 105.16 9.8737 105.16 13.3354C105.16 16.8364 103.071 18.882 100.39 18.882C97.6311 18.882 95.5813 16.8364 95.5813 13.3747Z" fill="#EEF2F9"/>
<path d="M122.082 18.9213C119.52 18.9213 117.155 17.0331 117.155 13.4141C117.155 9.75569 119.52 7.90683 122.082 7.90683C124.644 7.90683 127.009 9.75569 127.009 13.4141C127.009 17.0725 124.644 18.9213 122.082 18.9213ZM122.082 3.147C116.287 3.147 111.912 7.43478 111.912 13.4141C111.912 19.354 116.287 23.6812 122.082 23.6812C127.877 23.6812 132.252 19.354 132.252 13.4141C132.252 7.43478 127.877 3.147 122.082 3.147Z" fill="#EEF2F9"/>
<path d="M145.654 3.65839C145.26 3.61905 144.866 3.57971 144.432 3.57971C142.776 3.57971 140.096 4.05176 138.913 6.6087V3.73706H133.828V23.0911H139.071V14.2402C139.071 10.0704 141.397 8.77225 144.077 8.77225C144.55 8.77225 145.063 8.81159 145.654 8.92961V3.65839Z" fill="#EEF2F9"/>
<path d="M145.712 17.8199C145.712 20.8489 148.235 23.6418 152.374 23.6418C155.252 23.6418 157.105 22.3043 158.09 20.7702C158.09 21.5176 158.169 22.5797 158.287 23.0911H163.096C162.978 22.4224 162.86 21.0455 162.86 20.0228V10.5031C162.86 6.6087 160.573 3.147 154.424 3.147C149.221 3.147 146.422 6.49068 146.107 9.51967L150.758 10.5031C150.916 8.81159 152.177 7.35611 154.464 7.35611C156.671 7.35611 157.735 8.49689 157.735 9.8737C157.735 10.5424 157.381 11.0932 156.277 11.2505L151.507 11.9586C148.275 12.4306 145.712 14.3582 145.712 17.8199ZM153.478 19.7474C151.783 19.7474 150.955 18.646 150.955 17.5052C150.955 16.0104 152.02 15.2629 153.36 15.0662L157.735 14.3975V15.2629C157.735 18.6853 155.686 19.7474 153.478 19.7474Z" fill="#EEF2F9"/>
<path d="M183.993 0H178.829V5.6646C178.277 4.64182 176.7 3.26501 173.35 3.26501C167.87 3.26501 164.047 7.71014 164.047 13.3747C164.047 19.236 167.989 23.5631 173.507 23.5631C176.109 23.5631 178.08 22.383 178.947 20.8489C178.947 21.7536 179.065 22.6977 179.144 23.0911H184.15C184.072 22.3043 183.993 20.8882 183.993 19.5901V0ZM169.329 13.3747C169.329 9.91304 171.457 7.94617 174.138 7.94617C176.818 7.94617 178.908 9.8737 178.908 13.3354C178.908 16.8364 176.818 18.882 174.138 18.882C171.379 18.882 169.329 16.8364 169.329 13.3747Z" fill="#EEF2F9"/>
<path d="M195.829 18.9213C193.267 18.9213 190.902 17.0331 190.902 13.4141C190.902 9.75569 193.267 7.90683 195.829 7.90683C198.392 7.90683 200.757 9.75569 200.757 13.4141C200.757 17.0725 198.392 18.9213 195.829 18.9213ZM195.829 3.147C190.035 3.147 185.659 7.43478 185.659 13.4141C185.659 19.354 190.035 23.6812 195.829 23.6812C201.624 23.6812 206 19.354 206 13.4141C206 7.43478 201.624 3.147 195.829 3.147Z" fill="#EEF2F9"/>
<path d="M73.1142 37.119V35.2862H65.4276V32.974H69.3418V31.2399H65.4276V28.9559H73.1848V27.1231H63.4775V37.119H73.1142Z" fill="#EEF2F9"/>
<path d="M79.798 27.1231H77.523L75.3327 30.5772L73.1848 27.1231H70.8391L74.1175 32.114L70.825 37.119H73.1142L75.2903 33.6648L77.4523 37.119H79.8122L76.5197 32.1281L79.798 27.1231Z" fill="#EEF2F9"/>
<path d="M85.2354 37.3305C88.0474 37.3305 89.4888 35.4694 89.8703 33.9327L88.0474 33.3829C87.7789 34.3134 86.9452 35.4271 85.2354 35.4271C83.6245 35.4271 82.1266 34.257 82.1266 32.1281C82.1266 29.8582 83.7093 28.7867 85.2071 28.7867C86.9452 28.7867 87.7224 29.8441 87.9626 30.8028L89.7996 30.2248C89.404 28.6034 87.9768 26.9116 85.2071 26.9116C82.5223 26.9116 80.1059 28.9418 80.1059 32.1281C80.1059 35.3144 82.4375 37.3305 85.2354 37.3305Z" fill="#EEF2F9"/>
<path d="M99.7713 37.119V27.1231H97.8071V31.1412H93.4407V27.1231H91.4907V37.119H93.4407V32.974H97.8071V37.119H99.7713Z" fill="#EEF2F9"/>
<path d="M108.858 37.119H110.978L107.162 27.1231H104.901L101.058 37.119H103.121L103.955 34.835H108.024L108.858 37.119ZM105.99 29.2802L107.374 33.0586H104.605L105.99 29.2802Z" fill="#EEF2F9"/>
<path d="M120.808 37.119V27.1231H118.858V33.7353L114.69 27.1231H112.259V37.119H114.209V30.0274L118.759 37.119H120.808Z" fill="#EEF2F9"/>
<path d="M132.164 37.119V31.9166H127.161V33.6084H130.327C130.214 34.3134 129.493 35.554 127.642 35.554C125.96 35.554 124.477 34.3839 124.477 32.1281C124.477 29.7595 126.116 28.7303 127.628 28.7303C129.253 28.7303 130.086 29.7595 130.341 30.6477L132.206 29.9851C131.712 28.4484 130.256 26.9116 127.628 26.9116C124.915 26.9116 122.498 28.8995 122.498 32.1281C122.498 35.3567 124.802 37.3305 127.501 37.3305C129.013 37.3305 130.002 36.6537 130.454 35.977L130.581 37.119H132.164Z" fill="#EEF2F9"/>
<path d="M140.405 37.119V35.2862H138.418H136.081V32.974H139.996V31.2399H136.081V28.9559H140.405V27.1231H134.131V37.119H138.418H140.405Z" fill="#EEF2F9"/>
<ellipse cx="152.421" cy="32.3187" rx="1.8385" ry="1.83431" fill="#EEF2F9"/>
<g clip-path="url(#clip1_2321_3639)">
<path d="M175.91 36.6169V27.9337H178.759C179.704 27.9337 180.416 28.1289 180.892 28.5193C181.369 28.9081 181.607 29.4855 181.607 30.2517C181.607 30.6567 181.493 31.0179 181.259 31.3286C181.029 31.6425 180.714 31.8849 180.315 32.0557C180.786 32.1858 181.158 32.4363 181.432 32.8023C181.707 33.1716 181.84 33.6091 181.84 34.115C181.84 34.8942 181.588 35.5058 181.08 35.9499C180.574 36.3956 179.859 36.6169 178.934 36.6169H175.91ZM177.061 32.5746V35.6766H178.955C179.491 35.6766 179.913 35.54 180.222 35.2651C180.53 34.9902 180.685 34.6112 180.685 34.1313C180.685 33.0935 180.116 32.5746 178.973 32.5746H177.061ZM177.061 31.6344H178.794C179.296 31.6344 179.698 31.5075 180.001 31.257C180.302 31.0065 180.453 30.6681 180.453 30.2387C180.453 29.7604 180.313 29.414 180.034 29.1976C179.755 28.9796 179.329 28.8723 178.759 28.8723H177.061V31.6344ZM188.347 34.346H184.695L183.875 36.6185H182.691L186.018 27.9337H187.023L190.356 36.6185H189.177L188.347 34.346ZM185.044 33.4058H188.007L186.522 29.3473L185.044 33.4058ZM194.096 32.747C193.112 32.464 192.396 32.1159 191.945 31.7043C191.496 31.2928 191.271 30.7836 191.271 30.1801C191.271 29.4969 191.547 28.9308 192.094 28.4819C192.644 28.0345 193.355 27.8101 194.231 27.8101C194.83 27.8101 195.366 27.9256 195.832 28.1565C196.302 28.3859 196.663 28.7047 196.921 29.1114C197.179 29.5164 197.308 29.9605 197.308 30.4404H196.154C196.154 29.915 195.986 29.5018 195.651 29.2009C195.317 28.9016 194.842 28.7503 194.231 28.7503C193.665 28.7503 193.225 28.8739 192.908 29.1228C192.59 29.3733 192.431 29.7165 192.431 30.159C192.431 30.5136 192.58 30.8145 192.883 31.0585C193.184 31.3025 193.696 31.527 194.421 31.7303C195.144 31.9337 195.712 32.1582 196.119 32.4022C196.527 32.6462 196.831 32.9308 197.028 33.2594C197.226 33.5847 197.324 33.9703 197.324 34.4111C197.324 35.1154 197.048 35.6799 196.498 36.1028C195.947 36.5258 195.212 36.7372 194.29 36.7372C193.691 36.7372 193.132 36.6234 192.614 36.3956C192.097 36.1663 191.697 35.8523 191.415 35.4554C191.132 35.0585 190.994 34.6063 190.994 34.102H192.147C192.147 34.6258 192.342 35.039 192.732 35.3416C193.12 35.6441 193.639 35.797 194.29 35.797C194.897 35.797 195.361 35.6734 195.684 35.4261C196.009 35.1805 196.17 34.8438 196.17 34.4209C196.17 33.9947 196.018 33.6661 195.721 33.4335C195.426 33.2041 194.883 32.9731 194.096 32.747ZM203.726 32.6104H199.951V35.6766H204.336V36.6169H198.802V27.9337H204.277V28.8739H199.951V31.6702H203.726V32.6104Z" fill="#EEF2F9"/>
<path d="M168.733 37.4726C171.612 37.4726 173.947 35.1464 173.947 32.2753C173.947 29.4059 171.614 27.0781 168.733 27.0781C166.003 27.0781 163.761 29.1733 163.539 31.8378H170.429V32.7113H163.539C163.761 35.3774 166.003 37.4726 168.733 37.4726Z" fill="#EEF2F9"/>
</g>
</g>
<defs>
<clipPath id="clip0_2321_3639">
<rect width="52.88" height="38" fill="white"/>
</clipPath>
<clipPath id="clip1_2321_3639">
<rect width="40.7973" height="10.3944" fill="white" transform="translate(163.539 27.0781)"/>
</clipPath>
</defs>
</svg>
