<svg width="2353" height="436" viewBox="0 0 2353 436" fill="none" xmlns="http://www.w3.org/2000/svg">
<g clip-path="url(#clip0_2691_442)">
<path d="M46.0966 0C20.6328 0 0 20.6206 0 46.0692V388.971C0 414.42 20.6328 435.041 46.0966 435.041H557.916C583.38 435.041 604.013 414.42 604.013 388.971V46.0692C604.013 20.6206 583.38 0 557.916 0H46.0966ZM217.447 386.723H48.217V338.387H169.101V290.07H96.5816V241.753H217.447V386.723ZM555.648 386.723H265.811V338.387H507.302V290.07H435.502V241.753H555.648V386.723ZM386.418 241.753V290.07H266.272V241.605H314.637V241.753H386.418ZM386.566 48.3174H507.431V96.6347H434.912V144.952H555.796V193.288H386.566V48.3174V48.3174ZM217.594 48.3174H289.376V48.1699H337.74V96.6347H217.594V48.3174V48.3174ZM48.3645 48.3174H168.511V96.6347H96.7106V144.952H338.201V193.288H48.3645V48.3174V48.3174Z" fill="url(#paint0_linear_2691_442)"/>
</g>
<path d="M1013.24 264.357V205.811H787.201V161.226H911.923V105.833H787.201V58.5458H924.98V6.87183e-06H725.066L725.066 264.357H1013.24Z" fill="white"/>
<path d="M1013.24 264.357V6.87183e-06H953.361V264.357H1013.24Z" fill="white"/>
<path d="M1259.26 6.87183e-06H1200.28V64.8508C1193.97 53.1416 1175.96 37.3793 1137.69 37.3793C1075.11 37.3793 1031.43 88.2691 1031.43 153.12C1031.43 220.222 1076.46 269.761 1139.49 269.761C1169.21 269.761 1191.72 256.251 1201.63 238.687C1201.63 249.045 1202.98 259.853 1203.88 264.357H1261.06C1260.16 255.35 1259.26 239.137 1259.26 224.276V6.87183e-06ZM1091.77 153.12C1091.77 113.489 1116.08 90.9712 1146.7 90.9712C1177.31 90.9712 1201.18 113.038 1201.18 152.669C1201.18 192.751 1177.31 216.169 1146.7 216.169C1115.18 216.169 1091.77 192.751 1091.77 153.12Z" fill="white"/>
<path d="M1394.47 216.62C1365.2 216.62 1338.18 195.003 1338.18 153.57C1338.18 111.687 1365.2 90.5209 1394.47 90.5209C1423.73 90.5209 1450.75 111.687 1450.75 153.57C1450.75 195.453 1423.73 216.62 1394.47 216.62ZM1394.47 36.0282C1328.28 36.0282 1278.3 85.1166 1278.3 153.57C1278.3 221.573 1328.28 271.112 1394.47 271.112C1460.65 271.112 1510.63 221.573 1510.63 153.57C1510.63 85.1166 1460.65 36.0282 1394.47 36.0282Z" fill="white"/>
<path d="M1663.71 41.8828C1659.21 41.4324 1654.71 40.9821 1649.75 40.9821C1630.84 40.9821 1600.23 46.3863 1586.72 75.6592V42.7835H1528.63V264.357H1588.52V163.028C1588.52 115.29 1615.08 100.429 1645.7 100.429C1651.1 100.429 1656.96 100.879 1663.71 102.23V41.8828Z" fill="white"/>
<path d="M1664.38 204.01C1664.38 238.687 1693.2 270.662 1740.47 270.662C1773.34 270.662 1794.5 255.35 1805.76 237.786C1805.76 246.343 1806.66 258.502 1808.01 264.357H1862.94C1861.59 256.701 1860.24 240.939 1860.24 229.229V120.244C1860.24 75.6592 1834.13 36.0282 1763.89 36.0282C1704.45 36.0282 1672.49 74.3082 1668.88 108.985L1722.01 120.244C1723.81 100.879 1738.22 84.2159 1764.34 84.2159C1789.55 84.2159 1801.71 97.2761 1801.71 113.038C1801.71 120.694 1797.66 126.999 1785.05 128.801L1730.57 136.907C1693.65 142.311 1664.38 164.379 1664.38 204.01ZM1753.08 226.077C1733.72 226.077 1724.26 213.467 1724.26 200.407C1724.26 183.293 1736.42 174.737 1751.73 172.485L1801.71 164.829V174.737C1801.71 213.917 1778.3 226.077 1753.08 226.077Z" fill="white"/>
<path d="M2101.63 0H2042.65V64.8508C2036.34 53.1416 2018.33 37.3793 1980.06 37.3793C1917.47 37.3793 1873.8 88.2691 1873.8 153.12C1873.8 220.222 1918.83 269.761 1981.86 269.761C2011.58 269.761 2034.09 256.251 2044 238.687C2044 249.045 2045.35 259.853 2046.25 264.357H2103.43C2102.53 255.35 2101.63 239.137 2101.63 224.276V0ZM1934.13 153.12C1934.13 113.489 1958.45 90.9712 1989.07 90.9712C2019.68 90.9712 2043.55 113.038 2043.55 152.669C2043.55 192.751 2019.68 216.169 1989.07 216.169C1957.55 216.169 1934.13 192.751 1934.13 153.12Z" fill="white"/>
<path d="M2236.83 216.62C2207.57 216.62 2180.55 195.003 2180.55 153.57C2180.55 111.687 2207.57 90.5209 2236.83 90.5209C2266.1 90.5209 2293.12 111.687 2293.12 153.57C2293.12 195.453 2266.1 216.62 2236.83 216.62ZM2236.83 36.0282C2170.65 36.0282 2120.67 85.1166 2120.67 153.57C2120.67 221.573 2170.65 271.112 2236.83 271.112C2303.02 271.112 2353 221.573 2353 153.57C2353 85.1166 2303.02 36.0282 2236.83 36.0282Z" fill="white"/>
<path d="M835.139 424.952V403.969H747.34V377.498H792.05V357.645H747.34V331.498H835.946V310.515H725.066V424.952H835.139Z" fill="white"/>
<path d="M911.484 310.515H885.498L860.48 350.059L835.946 310.515H809.152L846.599 367.653L808.991 424.952H835.139L859.995 385.407L884.69 424.952H911.645L874.038 367.814L911.484 310.515Z" fill="white"/>
<path d="M973.591 427.373C1005.71 427.373 1022.17 406.067 1026.53 388.474L1005.71 382.179C1002.64 392.832 993.121 405.583 973.591 405.583C955.191 405.583 938.082 392.186 938.082 367.814C938.082 341.828 956.159 329.561 973.269 329.561C993.121 329.561 1002 341.666 1004.74 352.642L1025.73 346.024C1021.21 327.463 1004.9 308.094 973.269 308.094C942.601 308.094 915.001 331.336 915.001 367.814C915.001 404.292 941.633 427.373 973.591 427.373Z" fill="white"/>
<path d="M1139.63 424.952V310.515H1117.19V356.516H1067.32V310.515H1045.04V424.952H1067.32V377.498H1117.19V424.952H1139.63Z" fill="white"/>
<path d="M1243.42 424.952H1267.63L1224.05 310.515H1198.22L1154.32 424.952H1177.89L1187.41 398.804H1233.89L1243.42 424.952ZM1210.65 335.21L1226.47 378.467H1194.83L1210.65 335.21Z" fill="white"/>
<path d="M1379.92 424.952V310.515H1357.64V386.214L1310.03 310.515H1282.26V424.952H1304.54V343.765L1356.51 424.952H1379.92Z" fill="white"/>
<path d="M1509.62 424.952V365.393H1452.48V384.762H1488.64C1487.35 392.832 1479.12 407.036 1457.97 407.036C1438.76 407.036 1421.82 393.639 1421.82 367.814C1421.82 340.698 1440.54 328.915 1457.81 328.915C1476.37 328.915 1485.9 340.698 1488.8 350.866L1510.11 343.28C1504.46 325.687 1487.83 308.094 1457.81 308.094C1426.82 308.094 1399.22 330.852 1399.22 367.814C1399.22 404.776 1425.53 427.373 1456.36 427.373C1473.63 427.373 1484.93 419.626 1490.09 411.878L1491.54 424.952H1509.62Z" fill="white"/>
<path d="M1603.76 424.952V403.969H1581.06H1554.37V377.498H1599.08V357.645H1554.37V331.498H1603.76V310.515H1532.1V424.952H1581.06H1603.76Z" fill="white"/>
<circle cx="1741" cy="370" r="21" fill="#A6A6A6"/>
<g clip-path="url(#clip1_2691_442)">
<path d="M2009.31 419.204V319.796H2041.86C2052.65 319.796 2060.78 322.03 2066.22 326.5C2071.66 330.951 2074.38 337.562 2074.38 346.333C2074.38 350.97 2073.08 355.105 2070.41 358.661C2067.78 362.256 2064.19 365.03 2059.62 366.986C2065.01 368.476 2069.26 371.344 2072.39 375.534C2075.52 379.761 2077.05 384.771 2077.05 390.562C2077.05 399.483 2074.16 406.485 2068.36 411.569C2062.58 416.672 2054.42 419.204 2043.85 419.204H2009.31ZM2022.45 372.927V408.44H2044.09C2050.21 408.44 2055.03 406.876 2058.56 403.729C2062.08 400.582 2063.85 396.242 2063.85 390.749C2063.85 378.867 2057.35 372.927 2044.3 372.927H2022.45ZM2022.45 362.163H2042.25C2047.99 362.163 2052.57 360.71 2056.04 357.842C2059.47 354.974 2061.2 351.101 2061.2 346.184C2061.2 340.709 2059.6 336.742 2056.41 334.266C2053.23 331.77 2048.36 330.541 2041.86 330.541H2022.45V362.163ZM2151.37 393.207H2109.65L2100.29 419.223H2086.76L2124.77 319.796H2136.25L2174.31 419.223H2160.85L2151.37 393.207ZM2113.64 382.443H2147.49L2130.53 335.979L2113.64 382.443ZM2217.03 374.901C2205.79 371.66 2197.61 367.675 2192.47 362.963C2187.34 358.252 2184.77 352.423 2184.77 345.514C2184.77 337.692 2187.92 331.211 2194.16 326.071C2200.44 320.95 2208.57 318.38 2218.58 318.38C2225.42 318.38 2231.54 319.702 2236.87 322.347C2242.24 324.973 2246.35 328.623 2249.3 333.279C2252.25 337.916 2253.72 343 2253.72 348.493H2240.54C2240.54 342.478 2238.62 337.748 2234.8 334.303C2230.98 330.876 2225.55 329.144 2218.58 329.144C2212.11 329.144 2207.08 330.56 2203.46 333.409C2199.83 336.277 2198.02 340.206 2198.02 345.272C2198.02 349.331 2199.72 352.777 2203.18 355.57C2206.61 358.364 2212.47 360.933 2220.74 363.261C2229 365.589 2235.49 368.159 2240.15 370.953C2244.81 373.746 2248.27 377.005 2250.53 380.767C2252.79 384.491 2253.9 388.905 2253.9 393.952C2253.9 402.015 2250.75 408.478 2244.47 413.32C2238.17 418.161 2229.78 420.582 2219.25 420.582C2212.41 420.582 2206.02 419.279 2200.11 416.672C2194.2 414.046 2189.63 410.452 2186.41 405.908C2183.18 401.364 2181.6 396.187 2181.6 390.413H2194.78C2194.78 396.41 2197 401.14 2201.45 404.604C2205.89 408.068 2211.82 409.818 2219.25 409.818C2226.19 409.818 2231.48 408.403 2235.17 405.572C2238.88 402.76 2240.73 398.905 2240.73 394.064C2240.73 389.184 2238.99 385.423 2235.6 382.759C2232.23 380.134 2226.02 377.489 2217.03 374.901ZM2327.03 373.336H2283.91V408.44H2334V419.204H2270.79V319.796H2333.33V330.56H2283.91V362.572H2327.03V373.336Z" fill="#A6A6A6"/>
<path d="M1927.33 429C1960.21 429 1986.89 402.369 1986.89 369.5C1986.89 336.649 1960.23 310 1927.33 310C1896.15 310 1870.54 333.986 1868 364.49H1946.7V374.491H1868C1870.54 405.014 1896.15 429 1927.33 429Z" fill="#A6A6A6"/>
</g>
<defs>
<linearGradient id="paint0_linear_2691_442" x1="302.006" y1="0" x2="302.006" y2="435.041" gradientUnits="userSpaceOnUse">
<stop stop-color="#FFD100"/>
<stop offset="1" stop-color="#F89542"/>
</linearGradient>
<clipPath id="clip0_2691_442">
<rect width="604.013" height="435.041" fill="white"/>
</clipPath>
<clipPath id="clip1_2691_442">
<rect width="466" height="119" fill="white" transform="translate(1868 310)"/>
</clipPath>
</defs>
</svg>
